<svg width="1119" height="1115" viewBox="0 0 1119 1115" fill="none" xmlns="http://www.w3.org/2000/svg">
<path d="M487.358 198.339L501.983 166.718C505.119 159.937 513.438 157.367 519.851 161.197C521.026 161.899 522.079 162.788 522.968 163.828L543.001 187.286L566.176 212.521C571.199 217.991 576.651 223.053 582.48 227.657C595.501 237.942 606.585 250.465 615.215 264.638L631.947 292.117L637.136 301.199C649.093 322.122 656.952 345.133 660.294 369C662.349 383.679 662.676 398.549 661.268 413.305L658.729 439.921C658.729 464.166 647.744 487.106 628.855 502.307L623.795 506.378L606.971 524.041C605.479 525.608 603.778 526.959 601.915 528.058L588.136 536.186C586.527 537.135 585.812 539.089 586.43 540.852C590.235 551.726 583.875 563.518 572.699 566.312L570.23 566.929C557.128 571.554 543.335 573.917 529.441 573.917L521.322 573.917L505.488 573.917C496.676 573.917 487.903 572.742 479.402 570.424L479.291 570.387C472.445 568.104 466.115 564.497 460.661 559.77L457.656 557.166C453.571 553.626 448.762 551.023 443.565 549.538C438.033 547.957 432.944 545.11 428.703 541.222L416.675 530.196C410.385 524.43 404.812 517.926 400.079 510.826L393.128 500.4C387.017 491.233 382.221 481.254 378.88 470.755L377.781 467.3C376.439 463.083 374.733 458.992 372.682 455.071C366.487 443.229 363.513 429.967 364.056 416.614L365.284 386.437L366.449 341.023L368.643 325.667C370.257 314.364 374.794 303.678 381.805 294.665C387.296 287.606 391.285 279.5 393.529 270.843L395.56 263.005C402.088 245.595 417.05 232.722 435.239 228.864L447.415 226.281L455.378 224.33C464.924 221.993 473.525 216.789 480.025 209.419L480.43 208.96C483.241 205.774 485.575 202.196 487.358 198.339Z" fill="#F8D5AF" stroke="black"/>
<path d="M463.1 472.607L479.07 473.872L484.91 474.246L491.164 474.539L502.165 474.539L505.02 474.876C509.35 475.386 513.726 475.36 518.049 474.798C521.046 474.409 524.071 474.277 527.091 474.403L533.686 474.679L544.298 475.283L544.983 475.327C549.543 475.617 554.121 475.513 558.663 475.017L562.083 473.872L553.589 483.478L547.42 488.956C544.203 491.812 540.553 494.209 536.658 496.036C534.693 496.958 532.641 497.742 530.561 498.364C526.479 499.584 522.241 500.204 517.98 500.204L514.53 500.204C510.399 500.204 506.274 499.869 502.196 499.202L500.422 498.912L497.509 498.386C494.004 497.754 490.636 496.517 487.554 494.732C483.995 492.755 480.66 490.4 477.607 487.707L476.38 486.624C472.654 483.338 469.185 479.772 466.002 475.957L465.752 475.658L464.268 473.776L463.1 472.607Z" fill="#FF4444" fill-opacity="0.76"/>
<path d="M463.1 472.607L479.07 473.872L484.91 474.246L491.164 474.539L502.165 474.539L505.02 474.876C509.35 475.386 513.726 475.36 518.049 474.798C521.046 474.409 524.071 474.277 527.091 474.403L533.686 474.679L544.298 475.283L544.983 475.327C549.543 475.617 554.121 475.513 558.663 475.017L562.083 473.872L553.589 483.478L547.42 488.956C544.203 491.812 540.553 494.209 536.658 496.036C534.693 496.958 532.641 497.742 530.561 498.364C526.479 499.584 522.241 500.204 517.98 500.204L514.53 500.204C510.399 500.204 506.274 499.869 502.196 499.202L500.422 498.912L497.509 498.386C494.004 497.754 490.636 496.517 487.554 494.732C483.995 492.755 480.66 490.4 477.607 487.707L476.38 486.624C472.654 483.338 469.185 479.772 466.002 475.957L465.752 475.658L464.268 473.776L463.1 472.607Z" fill="url(#paint0_linear)"/>
<path d="M465.752 475.658L475.516 477.901L484.351 480.52L493.16 482.717L503.641 484.598L516.808 485.465L524.405 485.201L534.899 483.909L542.193 482.183V482.183C547.571 481.148 552.685 479.039 557.229 475.982L558.663 475.017M465.752 475.658L466.002 475.957C469.185 479.772 472.654 483.338 476.38 486.624V486.624L477.607 487.707C480.66 490.4 483.995 492.755 487.554 494.732V494.732V494.732C490.636 496.517 494.004 497.754 497.509 498.386L500.422 498.912L502.196 499.202C506.274 499.869 510.399 500.204 514.53 500.204V500.204L517.98 500.204C522.241 500.204 526.479 499.584 530.561 498.364V498.364C532.641 497.742 534.693 496.958 536.658 496.036V496.036C540.553 494.209 544.203 491.812 547.42 488.956L553.589 483.478L562.083 473.872L558.663 475.017M465.752 475.658L464.268 473.776L463.1 472.607L479.07 473.872L484.91 474.246L491.164 474.539L502.165 474.539L505.02 474.876C509.35 475.386 513.726 475.36 518.049 474.798V474.798C521.046 474.409 524.071 474.277 527.091 474.403L533.686 474.679L544.298 475.283L544.983 475.327C549.543 475.617 554.121 475.513 558.663 475.017V475.017" stroke="#E42B2B"/>
<path d="M429.549 298.674L421.462 297.897C413.426 297.125 405.645 300.974 401.383 307.831L393.018 322.071L400.87 316.616C407.409 312.074 415.201 309.681 423.163 309.771L472.708 318.966C476.407 319.652 479.848 316.88 479.964 313.119C480.058 310.08 477.914 307.43 474.922 306.888L429.549 298.674Z" fill="#2A231C"/>
<g filter="url(#filter0_d)">
<path d="M477.884 408.26L476.345 412.294C475.433 414.685 474.878 417.198 474.697 419.751L474.419 423.667C474.307 425.25 474.576 426.838 475.203 428.296V428.296C476.388 431.051 478.753 433.124 481.64 433.938L482.193 434.093C483.307 434.407 484.463 434.546 485.62 434.504L490.444 434.328C492.546 434.252 494.613 434.876 496.321 436.102V436.102C496.91 436.525 497.546 436.879 498.216 437.158L501.891 438.683L502.226 438.837C504.321 439.803 506.598 440.313 508.905 440.334V440.334L509.536 440.339C511.426 440.356 513.298 439.965 515.023 439.194V439.194C515.6 438.936 516.158 438.636 516.693 438.298L520.999 435.571V435.571C521.949 434.872 523.097 434.497 524.276 434.5L526.5 434.506C527.244 434.508 527.986 434.578 528.717 434.715L529.463 434.854C530.536 435.055 531.623 435.17 532.714 435.198L534.816 435.252L535.579 435.163C537.542 434.936 539.352 433.99 540.659 432.508L540.936 432.194C541.053 432.062 541.181 431.939 541.318 431.829V431.829C541.738 431.491 542.063 431.049 542.26 430.548L543.305 427.893C543.923 426.321 544.233 424.646 544.218 422.957V422.957C544.213 422.334 544.163 421.713 544.07 421.097L543.424 416.846C543.125 414.87 542.511 412.955 541.608 411.172V411.172" stroke="#9B846B"/>
</g>
<path d="M590.01 312.726L551.773 319.461C547.971 320.131 544.406 317.418 544.036 313.576C543.717 310.25 545.927 307.207 549.188 306.482L561.779 303.682L578.302 301.513L598.558 299.402C603.251 299.304 607.837 300.816 611.551 303.688L616.809 307.752L628.454 320.703L619.907 316.696C610.587 312.327 600.147 310.941 590.01 312.726Z" fill="#2B231C"/>
<g filter="url(#filter1_d)">
<path d="M416.016 344.803L410.396 339.005C409.812 338.403 410.099 337.395 410.912 337.191L417.519 336.101L425.692 334.821L433.236 333.774L441.84 333.774L448.758 334.71C449.303 334.784 449.832 334.947 450.323 335.193L455.239 337.651L460.268 341.108L466.595 346.577L472.394 352.043C472.661 352.294 472.647 352.724 472.363 352.957C472.301 353.008 472.228 353.047 472.151 353.07L466.344 354.813C466.066 354.897 465.781 354.956 465.493 354.99L455.239 356.201L453.978 356.201L445.83 356.201L436.759 355.16C436.486 355.128 436.216 355.075 435.952 354.999L431.35 353.681L426.949 351.795L421.41 348.867C421.174 348.742 420.948 348.599 420.735 348.438L416.594 345.313C416.389 345.158 416.196 344.987 416.016 344.803Z" fill="white"/>
<path d="M416.016 344.803L410.396 339.005C409.812 338.403 410.099 337.395 410.912 337.191L417.519 336.101L425.692 334.821L433.236 333.774L441.84 333.774L448.758 334.71C449.303 334.784 449.832 334.947 450.323 335.193L455.239 337.651L460.268 341.108L466.595 346.577L472.394 352.043C472.661 352.294 472.647 352.724 472.363 352.957C472.301 353.008 472.228 353.047 472.151 353.07L466.344 354.813C466.066 354.897 465.781 354.956 465.493 354.99L455.239 356.201L453.978 356.201L445.83 356.201L436.759 355.16C436.486 355.128 436.216 355.075 435.952 354.999L431.35 353.681L426.949 351.795L421.41 348.867C421.174 348.742 420.948 348.599 420.735 348.438L416.594 345.313C416.389 345.158 416.196 344.987 416.016 344.803Z" stroke="#A08A72" stroke-width="0.3"/>
</g>
<g filter="url(#filter2_d)">
<path d="M562.89 358.233L550.269 356.35C550.203 356.34 550.136 356.335 550.068 356.335C548.901 356.335 548.273 354.965 549.034 354.081L551.916 350.733L555.904 347.241L562.158 342.924C562.645 342.588 563.161 342.296 563.699 342.051L570.204 339.093L574.54 337.512C574.995 337.347 575.46 337.214 575.934 337.116L578.543 336.575C579.211 336.436 579.891 336.366 580.573 336.366L586.534 336.366L589.317 336.366C589.79 336.366 590.263 336.4 590.731 336.467L598.179 337.531L606.515 338.928C606.616 338.945 606.604 339.094 606.501 339.094C606.472 339.094 606.445 339.109 606.43 339.135L602.321 346.136C601.89 346.87 601.368 347.546 600.766 348.147L598.179 350.733C597.493 351.613 596.659 352.366 595.713 352.957L593.152 354.557L590.37 356.08C589.568 356.519 588.71 356.846 587.819 357.052L580.294 358.79C579.556 358.961 578.8 359.047 578.043 359.047L570.204 359.047L562.89 358.233Z" fill="white"/>
<path d="M562.89 358.233L550.269 356.35C550.203 356.34 550.136 356.335 550.068 356.335C548.901 356.335 548.273 354.965 549.034 354.081L551.916 350.733L555.904 347.241L562.158 342.924C562.645 342.588 563.161 342.296 563.699 342.051L570.204 339.093L574.54 337.512C574.995 337.347 575.46 337.214 575.934 337.116L578.543 336.575C579.211 336.436 579.891 336.366 580.573 336.366L586.534 336.366L589.317 336.366C589.79 336.366 590.263 336.4 590.731 336.467L598.179 337.531L606.515 338.928C606.616 338.945 606.604 339.094 606.501 339.094C606.472 339.094 606.445 339.109 606.43 339.135L602.321 346.136C601.89 346.87 601.368 347.546 600.766 348.147L598.179 350.733C597.493 351.613 596.659 352.366 595.713 352.957L593.152 354.557L590.37 356.08C589.568 356.519 588.71 356.846 587.819 357.052L580.294 358.79C579.556 358.961 578.8 359.047 578.043 359.047L570.204 359.047L562.89 358.233Z" stroke="#A08A72" stroke-width="0.3"/>
</g>
<path d="M454.015 347.969C453.054 353.02 448.717 355.534 443.598 356.023V356.023C438.729 356.488 432.698 354.543 430.86 350.01C429.869 347.567 429.449 344.923 429.75 342.449C430.267 338.202 434.074 335.1 438.291 334.378C439.337 334.198 440.384 334.112 441.424 334.096C447.294 334.004 453.489 337.213 454.194 343.041C454.391 344.666 454.325 346.342 454.015 347.969Z" fill="black"/>
<g filter="url(#filter3_d)">
<path d="M590.984 350.264C590.408 355.076 586.951 358.284 582.123 358.699V358.699C577.26 359.118 570.863 358.539 568.607 354.211C567.407 351.907 566.887 349.3 567.147 346.698C567.546 342.713 570.409 339.22 574.192 337.904C574.838 337.679 575.483 337.51 576.13 337.384C582.252 336.19 589.502 338.804 590.78 344.909C591.14 346.629 591.201 348.454 590.984 350.264Z" fill="black"/>
</g>
<g filter="url(#filter4_d)">
<path d="M587.51 348.8C587.414 352.26 584.881 354.527 581.421 354.653V354.653C578.37 354.764 574.317 354.351 572.663 351.785C571.731 350.337 571.216 348.704 571.189 347.071C571.139 344.093 573.404 341.413 576.308 340.753C576.785 340.644 577.262 340.575 577.744 340.536C581.508 340.223 585.749 341.622 586.976 345.195C587.37 346.342 587.544 347.573 587.51 348.8Z" fill="#2D2012"/>
</g>
<g filter="url(#filter5_d)">
<path d="M450.103 346.472C450.007 349.933 447.473 352.199 444.014 352.325V352.325C440.963 352.436 436.91 352.024 435.256 349.457C434.323 348.01 433.809 346.377 433.781 344.743C433.731 341.765 435.997 339.085 438.901 338.425C439.377 338.317 439.855 338.248 440.336 338.208C444.101 337.895 448.342 339.295 449.569 342.867C449.963 344.015 450.137 345.246 450.103 346.472Z" fill="#2D2012"/>
</g>
<g filter="url(#filter6_d)">
<path d="M580.508 345.176C580.297 346.009 579.699 346.597 578.854 346.754V346.754C577.781 346.953 576.373 346.82 576.051 345.776C575.898 345.281 575.888 344.721 576.036 344.163C576.205 343.522 576.641 342.968 577.22 342.644C577.312 342.593 577.403 342.548 577.494 342.509C578.847 341.927 580.636 342.69 580.638 344.163C580.639 344.493 580.594 344.837 580.508 345.176Z" fill="white"/>
</g>
<g filter="url(#filter7_d)">
<path d="M445.431 342.847C445.22 343.68 444.622 344.267 443.777 344.424V344.424C442.704 344.624 441.296 344.49 440.974 343.447C440.821 342.951 440.811 342.392 440.958 341.834C441.128 341.193 441.564 340.638 442.142 340.315C442.234 340.263 442.326 340.219 442.417 340.18C443.77 339.597 445.559 340.36 445.561 341.833C445.562 342.164 445.517 342.508 445.431 342.847Z" fill="white"/>
</g>
<g filter="url(#filter8_d)">
<path d="M533.759 396.061L530.692 388.767L528.937 382.945L528.51 381.083C527.906 378.451 527.601 375.76 527.601 373.059V373.059C527.601 371.114 527.759 369.171 528.074 367.251L528.937 361.993L531.275 351.931L533.759 345.513L535.35 341.024" stroke="#9B846B"/>
</g>
<g filter="url(#filter9_d)">
<path d="M478.77 341.024L484.155 353.012L485.968 358.691C486.909 361.638 487.574 364.667 487.955 367.737L488.236 370.003L488.236 375.443L487.382 382.426L485.661 389.673L485.432 390.341C484.591 392.8 483.222 395.045 481.422 396.918V396.918" stroke="#9B846B"/>
</g>
<g filter="url(#filter10_i)">
<path d="M410.595 531.869L408.961 516.269C408.566 512.489 413.585 510.816 415.537 514.077C415.889 514.666 416.405 515.14 417.022 515.442L424.672 519.187L432.053 523.982C436.188 526.668 439.896 529.96 443.053 533.748C445.31 536.457 447.853 538.916 450.636 541.083L455.982 545.242C461.58 549.599 467.579 553.414 473.898 556.636L475.819 557.616L479.164 559.608C484.724 562.92 490.746 565.387 497.031 566.929L500.405 567.489C505.761 568.378 511.182 568.825 516.611 568.825C520.777 568.825 524.931 568.389 529.005 567.523L531.803 566.929L533.752 566.442C538.655 565.218 543.455 563.61 548.105 561.632L548.254 561.568C554.361 558.941 560.168 555.663 565.572 551.792L570.23 547.878L581.879 537.823L596.564 526.402L604.596 518.369C606.85 516.115 609.322 514.089 611.974 512.321L613.564 511.261C619.532 507.282 624.358 501.815 627.566 495.4C629.052 493.188 632.501 494.611 631.996 497.227L621.466 551.792L615.816 616.775C615.422 621.308 613.585 625.594 610.575 629.007C608.626 631.216 606.239 632.997 603.566 634.236L600.465 635.673C597.992 636.82 595.401 637.693 592.739 638.278L575.014 642.176L557.442 643.748L540.042 647.536C538.479 647.876 536.874 647.977 535.281 647.836L534.608 647.777C527.725 647.168 521.32 651.35 519.109 657.897C516.046 666.966 505.374 670.869 497.183 665.915L490.908 662.12C488.689 660.778 486.24 659.861 483.685 659.418L437.591 651.412C420.587 648.459 405.852 637.925 397.557 622.791L388.392 606.07C380.421 591.528 384.075 573.36 397.048 563.03L405.278 556.477C411.739 551.332 414.22 542.653 411.454 534.871L410.962 533.487C410.776 532.964 410.653 532.421 410.595 531.869Z" fill="#F8D5AF"/>
</g>
<path d="M516.341 196.802L518.164 204.349C522.973 224.252 533.719 242.223 548.976 255.88V255.88V255.88C564.634 269.342 582.045 280.619 600.734 289.402L653.673 314.283L628.489 303.871C608.59 295.644 591.035 282.622 577.39 265.964V265.964L566.548 255.88L555.639 247.333C546.203 239.939 538.84 230.23 534.268 219.148V219.148L527.292 211.995L516.341 196.802ZM516.341 196.802V196.802C505.34 218.29 486.907 235.051 464.471 243.963L356.707 286.771L451.195 242.556L464.512 234.911L474.024 230.137L492.414 217.847L501.292 211.995L516.341 196.802Z" stroke="black"/>
<path d="M621.279 151.115L644.96 179.732C682.057 224.561 709.478 276.581 725.5 332.519V332.519C736.317 370.288 741.806 409.383 741.806 448.671V479.767V570.711V570.711C741.806 603.761 752.076 635.995 771.197 662.952L776.06 669.809C798.345 701.227 810.315 738.793 810.315 777.312V797.757V832.146C810.315 846.815 808.832 861.445 805.889 875.815L804.321 883.47C797.459 916.977 781.648 948 758.569 973.242V973.242C733.656 1000.49 701.321 1019.86 665.542 1028.97L601.46 1045.28" stroke="black"/>
<path d="M617.777 95.6377L639.652 123.118C676.203 169.036 703.083 221.876 718.672 278.458V278.458C729.04 316.089 734.294 354.944 734.294 393.977V425.928V467.982C734.294 502.696 740.526 537.129 752.692 569.642V569.642L764.768 593.83C788.284 640.932 800.525 692.856 800.525 745.502V745.502V802.231V868.606C800.525 928.713 776.71 986.372 734.294 1028.96V1028.96" stroke="black"/>
<path d="M425.237 118.481L391.912 155.955C364.708 186.546 345.718 223.544 336.723 263.48V263.48L334.261 278.89C330.091 304.983 327.996 331.365 327.996 357.789V371.446L320.516 444.887L317.751 474.517L316.211 482.266C315.342 486.633 314.14 490.927 312.614 495.11V495.11C306.79 511.075 296.416 524.984 282.774 535.119L274.41 541.332C268.59 545.656 263.168 550.49 258.208 555.778L246.739 568.007C238.191 577.122 230.736 587.205 224.528 598.05L219.545 606.754C208.919 625.316 203.329 646.333 203.329 667.722V667.722V709.15" stroke="black"/>
<path d="M528.666 741.784C528.666 748.57 523.879 753.837 518.244 753.837C512.61 753.837 507.822 748.57 507.822 741.784C507.822 734.997 512.61 729.73 518.244 729.73C523.879 729.73 528.666 734.997 528.666 741.784Z" stroke="black" stroke-width="2"/>
<circle cx="518.244" cy="779.312" r="10.4218" stroke="black" stroke-width="2"/>
<g filter="url(#filter11_f)">
<ellipse cx="594.933" cy="426.87" rx="32.6337" ry="31.002" fill="#FFC3B6" fill-opacity="0.5"/>
</g>
<g filter="url(#filter12_f)">
<circle cx="418.711" cy="428.501" r="32.6337" fill="#FFC3B6" fill-opacity="0.5"/>
</g>
<path d="M583.839 86.0236L597.419 90.3884C609.987 94.4278 621.708 100.735 632.003 108.999C638.448 114.172 644.278 120.068 649.38 126.569L650.1 127.487C655.789 134.738 660.61 142.628 664.466 150.998L672.297 167.997C680.682 184.447 686.832 201.945 690.581 220.025L693.541 234.3L707.273 293.638L719.255 372.052L727.999 447.172L733.652 520.998L733.652 528.885C733.652 554.684 736.722 580.392 742.797 605.466C747.416 625.282 765.81 656.295 768.704 664.878C771.598 673.462 783.218 720.397 788.665 742.792L796.379 777.554C804.734 815.21 802.056 854.477 788.665 890.65L780.764 907.704C772.789 924.919 761.796 940.568 748.306 953.91C729.248 972.759 705.734 986.484 679.949 993.808L522.488 1038.54C563.107 1009.82 588.722 964.42 592.293 914.806L598.101 834.104C599.408 815.93 602.187 797.891 606.41 780.166L606.754 778.724C613.183 751.738 616.43 724.092 616.43 696.35L616.43 656.593L616.43 605.466L617.609 593.974C619.312 577.384 613.368 560.921 601.46 549.245C594.968 541.826 595.129 530.702 601.832 523.474L620.303 503.558C630.29 491.59 637.724 477.707 642.148 462.761L645.024 453.049C649.48 437.995 651.744 422.378 651.744 406.678L651.744 398.864C651.744 375.974 648.126 353.227 641.025 331.465L638.934 325.058L637.839 322.761C636.242 319.414 634.409 316.185 632.352 313.1L627.399 305.671C620.554 295.404 610.343 287.847 598.525 284.302C595.197 283.303 591.778 282.634 588.319 282.305L574.441 280.983C570.868 280.643 567.34 279.932 563.914 278.861L550.866 274.784C539.275 271.161 530.906 261.051 529.514 248.987L524.41 204.757C523.735 198.908 516.776 196.216 512.341 200.088L459.607 253.689C448.831 263.694 436.3 271.624 422.644 277.078L420.668 277.867C416.327 279.601 412.12 281.654 408.083 284.009L396.863 290.553C388.595 295.376 381.878 302.463 377.505 310.978C374.814 316.217 373.066 321.89 372.342 327.735L368.779 356.498L368.779 391.726L372.155 431.91C373.005 442.03 375.336 451.97 379.073 461.413C385.313 477.175 395.319 491.169 408.217 502.17L428.167 519.186L436.958 529.14C441.029 533.749 443.724 539.407 444.739 545.471C446.05 553.3 444.482 561.34 440.326 568.103L433.175 579.739C429.852 585.147 427.287 590.986 425.553 597.092L422.383 608.25C420.051 616.461 418.491 624.871 417.723 633.372C415.387 659.231 405.755 683.894 389.947 704.49L375.766 722.967C357.612 750.408 349.333 783.208 352.289 815.977L357.134 869.69L266.687 752.41L222.418 702.055C201.675 671.109 201.321 630.791 221.518 599.486L229.971 586.384C233.142 581.47 236.677 576.799 240.546 572.413L255.963 554.935C259.325 551.123 263.095 547.69 267.205 544.698C276.961 537.595 284.053 527.168 293.431 519.573C301.608 512.95 311.167 509.118 316.968 502.542C322.96 495.748 325.416 458.153 326.186 427.556C326.787 403.738 328.532 379.914 332.93 356.498L338.75 285.63L345.469 248.1L354.626 212.306C359.777 192.173 368.264 173.045 379.733 155.715L389.922 140.116C394.088 133.737 398.71 127.666 403.75 121.952L407.343 117.878C414.242 110.057 422.15 103.187 430.859 97.4489C442.332 89.8904 455.039 84.3986 468.405 81.2222L469.656 80.9249C479.125 78.6748 488.824 77.5382 498.556 77.5382L505.991 77.5382L528.802 77.5382C546.117 77.5383 563.342 80.0122 579.957 84.8851L583.839 86.0236Z" fill="black"/>
<path d="M512.341 200.088V200.088C516.776 196.216 523.735 198.908 524.41 204.757L529.514 248.987C530.906 261.051 539.275 271.161 550.866 274.784L563.914 278.861C567.34 279.932 570.868 280.643 574.441 280.983L588.319 282.305C591.778 282.634 595.197 283.303 598.525 284.302V284.302C610.343 287.847 620.554 295.404 627.399 305.671L632.352 313.1C634.409 316.185 636.242 319.414 637.839 322.761L638.934 325.058L641.025 331.465C648.126 353.227 651.744 375.974 651.744 398.864L651.744 406.678C651.744 422.378 649.48 437.995 645.024 453.049L642.148 462.761C637.724 477.707 630.29 491.59 620.303 503.558V503.558L601.832 523.474C595.129 530.702 594.968 541.826 601.46 549.245V549.245V549.245C613.368 560.921 619.312 577.384 617.609 593.974L616.43 605.466L616.43 656.593L616.43 696.35C616.43 724.092 613.183 751.738 606.754 778.724L606.41 780.166C602.187 797.891 599.408 815.93 598.101 834.104L592.293 914.806C588.722 964.42 563.107 1009.82 522.488 1038.54V1038.54L679.949 993.808C705.734 986.484 729.248 972.759 748.306 953.91V953.91C761.796 940.568 772.789 924.919 780.764 907.704L788.665 890.65V890.65C802.056 854.477 804.735 815.21 796.379 777.554L788.665 742.792C783.218 720.397 771.598 673.462 768.704 664.878C765.81 656.295 747.416 625.282 742.797 605.466V605.466C736.722 580.392 733.652 554.684 733.652 528.885L733.652 520.998L727.999 447.172L719.255 372.052L707.273 293.638L693.541 234.3L690.581 220.025C686.832 201.945 680.682 184.447 672.297 167.997V167.997L664.466 150.998C660.61 142.628 655.789 134.738 650.1 127.487L649.38 126.569C644.278 120.068 638.448 114.172 632.003 108.999V108.999C621.708 100.735 609.987 94.4278 597.419 90.3884L583.839 86.0236L579.957 84.8851C563.342 80.0122 546.117 77.5383 528.802 77.5383V77.5383L505.991 77.5382M512.341 200.088L459.607 253.689V253.689C448.831 263.694 436.3 271.624 422.644 277.078L420.668 277.867C416.327 279.601 412.12 281.654 408.083 284.009L396.863 290.553C388.595 295.376 381.878 302.463 377.505 310.978V310.978C374.814 316.217 373.066 321.89 372.342 327.735L368.779 356.498L368.779 391.726L372.155 431.91C373.005 442.03 375.336 451.97 379.073 461.413V461.413C385.313 477.175 395.319 491.169 408.217 502.17L428.167 519.186L436.958 529.14C441.029 533.749 443.724 539.407 444.74 545.471V545.471C446.05 553.3 444.482 561.34 440.326 568.103L433.175 579.739C429.852 585.147 427.287 590.986 425.553 597.092L422.383 608.25C420.051 616.461 418.491 624.871 417.723 633.372V633.372C415.387 659.231 405.755 683.894 389.947 704.49L375.766 722.967V722.967C357.612 750.408 349.333 783.208 352.289 815.977L357.134 869.69L266.687 752.41L222.418 702.055V702.055C201.675 671.109 201.321 630.791 221.518 599.486L229.971 586.384C233.142 581.47 236.677 576.799 240.546 572.413L255.963 554.935C259.325 551.123 263.095 547.69 267.205 544.698V544.698C276.961 537.595 284.053 527.168 293.431 519.573C301.608 512.95 311.167 509.118 316.968 502.542C322.96 495.748 325.416 458.153 326.186 427.556C326.787 403.738 328.532 379.914 332.93 356.498V356.498L338.75 285.63L345.469 248.1L354.626 212.306C359.777 192.173 368.264 173.045 379.733 155.715V155.715L389.922 140.116C394.088 133.737 398.71 127.666 403.75 121.952L407.343 117.878C414.242 110.057 422.15 103.187 430.859 97.4489V97.4489C442.332 89.8904 455.039 84.3986 468.405 81.2222L469.656 80.9249C479.125 78.6748 488.824 77.5382 498.556 77.5382L505.991 77.5382M512.341 200.088L505.991 77.5382" stroke="black"/>
<path d="M482.071 354.995L489.927 346.729C491.322 345.261 492.928 344.012 494.693 343.021V343.021C497.044 341.702 499.635 340.865 502.314 340.561L508.501 339.857H510.361C513.057 339.857 515.73 340.353 518.246 341.32V341.32C521.16 342.439 523.802 344.166 525.997 346.386L529.246 349.672L531.868 352.667" stroke="black" stroke-width="2"/>
<path d="M670.501 315.404L626.481 342.575L631.66 350.338L675.033 324.831L670.501 315.404Z" fill="black" stroke="black"/>
<path d="M391.638 344.314L339.913 331.799L335.789 340.824L385.576 354.026L391.638 344.314Z" fill="black" stroke="black"/>
<path d="M486.727 368.969C486.727 395.335 463.027 416.877 433.572 416.877C404.118 416.877 380.418 395.335 380.418 368.969C380.418 342.604 404.118 321.062 433.572 321.062C463.027 321.062 486.727 342.604 486.727 368.969Z" fill="url(#paint1_linear)" fill-opacity="0.2" stroke="black" stroke-width="2"/>
<path d="M637.985 368.969C637.985 395.305 613.483 416.877 582.963 416.877C552.444 416.877 527.942 395.305 527.942 368.969C527.942 342.634 552.444 321.062 582.963 321.062C613.483 321.062 637.985 342.634 637.985 368.969Z" fill="url(#paint2_linear)" fill-opacity="0.15" stroke="black" stroke-width="2"/>
<path d="M468.712 792.195C476.875 784.153 482.783 774.105 485.842 763.056L487.958 755.411C489.352 750.376 490.236 745.213 490.596 740C491.593 725.58 488.558 711.166 481.83 698.371L475.781 686.867L465.062 659.943L465.06 659.938L455.353 636.216L490.317 636.199C490.317 636.199 490.318 636.199 490.318 636.199M468.712 792.195L490.318 636.199M468.712 792.195L502.154 841.459L502.204 730.099L503.204 730.1L503.153 841.996L535.008 814.655M468.712 792.195L535.008 814.655M490.318 636.199C497.66 636.21 504.386 640.302 507.771 646.817L512.466 655.855L512.485 668.915L513.485 668.913L513.466 655.926L518.85 650.031C524.541 643.799 532.595 640.254 541.034 640.266C543.26 640.269 545.48 640.033 547.656 639.56L554.99 637.966C575.262 633.562 592.149 619.623 600.315 600.555M490.318 636.199L600.315 600.555M536.008 813.498L547.589 799.528L559.608 783.52L536.008 813.498ZM536.008 813.498L536.008 730.1L535.008 730.1L535.008 814.655M536.008 813.498L535.008 814.655M600.315 600.555L611.327 583.152L610.482 582.618L606.416 589.043L614.236 574.291C615.206 572.462 615.604 570.384 615.379 568.326L614.323 558.692C614.021 555.927 616.802 553.856 619.364 554.939C620.421 555.385 621.206 556.303 621.483 557.416L625.705 574.406C627.287 580.768 627.224 587.427 625.523 593.758L617.398 624.004L617.397 624.007L604.064 674.757L591.871 712.304L577.653 694.369C576.157 692.482 574.36 690.855 572.335 689.553C566.031 685.502 558.093 684.956 551.294 688.107L544.195 691.398L544.615 692.305L551.715 689.015C558.203 686.007 565.778 686.528 571.794 690.395C573.727 691.637 575.442 693.19 576.869 694.99L591.508 713.456L588.043 725.78C582.187 746.608 572.548 766.18 559.609 783.519L600.315 600.555ZM490.097 739.966C491.088 725.638 488.072 711.316 481.388 698.604M468.427 791.774C476.493 783.804 482.333 773.857 485.36 762.923M572.065 689.974C565.905 686.015 558.148 685.482 551.504 688.561M474.862 687.261L474.871 687.286L474.884 687.309L480.945 698.837C487.586 711.467 490.582 725.696 489.598 739.931C489.243 745.077 488.37 750.173 486.994 755.144L484.878 762.789C481.831 773.798 475.91 783.798 467.723 791.764L463.781 795.275C460.857 797.88 457.302 799.675 453.469 800.483C446.421 801.969 439.088 799.986 433.748 795.151L433.122 794.584C429.128 790.967 426.459 786.117 425.542 780.807L425.414 780.068C424.786 776.431 424.929 772.704 425.836 769.126L427.263 763.495C428.647 758.033 429.178 752.389 428.836 746.764L426.772 712.853L426.771 712.839L426.77 712.824L426.077 707.041C424.83 696.629 422.117 686.445 418.018 676.792L416.22 672.556C413.651 666.508 411.886 660.149 410.97 653.643L409.826 645.524C408.456 635.796 410.057 625.881 414.419 617.079L424.679 596.378C425.388 594.947 425.677 593.376 425.554 591.834L438.342 612.019L438.342 612.019L438.348 612.028L454.164 635.951L464.133 660.313L464.134 660.317L474.862 687.261Z" fill="white" stroke="black"/>
<circle cx="519.875" cy="758.1" r="6.52673" fill="black"/>
<circle cx="519.875" cy="784.208" r="6.52673" fill="black"/>
<defs>
<filter id="filter0_d" x="463.458" y="375.627" width="90.9508" height="90.4654" filterUnits="userSpaceOnUse" color-interpolation-filters="sRGB">
<feFlood flood-opacity="0" result="BackgroundImageFix"/>
<feColorMatrix in="SourceAlpha" type="matrix" values="0 0 0 0 0 0 0 0 0 0 0 0 0 0 0 0 0 0 127 0"/>
<feOffset/>
<feGaussianBlur stdDeviation="1"/>
<feColorMatrix type="matrix" values="0 0 0 0 0 0 0 0 0 0 0 0 0 0 0 0 0 0 0.3 0"/>
<feBlend mode="normal" in2="BackgroundImageFix" result="effect1_dropShadow"/>
<feBlend mode="normal" in="SourceGraphic" in2="effect1_dropShadow" result="shape"/>
</filter>
<filter id="filter1_d" x="407.433" y="310.724" width="67.6125" height="69.2185" filterUnits="userSpaceOnUse" color-interpolation-filters="sRGB">
<feFlood flood-opacity="0" result="BackgroundImageFix"/>
<feColorMatrix in="SourceAlpha" type="matrix" values="0 0 0 0 0 0 0 0 0 0 0 0 0 0 0 0 0 0 127 0"/>
<feOffset/>
<feGaussianBlur stdDeviation="1"/>
<feColorMatrix type="matrix" values="0 0 0 0 0 0 0 0 0 0 0 0 0 0 0 0 0 0 0.5 0"/>
<feBlend mode="normal" in2="BackgroundImageFix" result="effect1_dropShadow"/>
<feBlend mode="normal" in="SourceGraphic" in2="effect1_dropShadow" result="shape"/>
</filter>
<filter id="filter2_d" x="545.948" y="314.585" width="63.561" height="65.5837" filterUnits="userSpaceOnUse" color-interpolation-filters="sRGB">
<feFlood flood-opacity="0" result="BackgroundImageFix"/>
<feColorMatrix in="SourceAlpha" type="matrix" values="0 0 0 0 0 0 0 0 0 0 0 0 0 0 0 0 0 0 127 0"/>
<feOffset/>
<feGaussianBlur stdDeviation="1"/>
<feColorMatrix type="matrix" values="0 0 0 0 0 0 0 0 0 0 0 0 0 0 0 0 0 0 0.5 0"/>
<feBlend mode="normal" in2="BackgroundImageFix" result="effect1_dropShadow"/>
<feBlend mode="normal" in="SourceGraphic" in2="effect1_dropShadow" result="shape"/>
</filter>
<filter id="filter3_d" x="561.86" y="332.022" width="34.6918" height="34.3893" filterUnits="userSpaceOnUse" color-interpolation-filters="sRGB">
<feFlood flood-opacity="0" result="BackgroundImageFix"/>
<feColorMatrix in="SourceAlpha" type="matrix" values="0 0 0 0 0 0 0 0 0 0 0 0 0 0 0 0 0 0 127 0"/>
<feOffset dy="1"/>
<feGaussianBlur stdDeviation="0.5"/>
<feColorMatrix type="matrix" values="0 0 0 0 0 0 0 0 0 0 0 0 0 0 0 0 0 0 0.1 0"/>
<feBlend mode="normal" in2="BackgroundImageFix" result="effect1_dropShadow"/>
<feBlend mode="normal" in="SourceGraphic" in2="effect1_dropShadow" result="shape"/>
</filter>
<filter id="filter4_d" x="564.461" y="333.017" width="29.9557" height="29.4" filterUnits="userSpaceOnUse" color-interpolation-filters="sRGB">
<feFlood flood-opacity="0" result="BackgroundImageFix"/>
<feColorMatrix in="SourceAlpha" type="matrix" values="0 0 0 0 0 0 0 0 0 0 0 0 0 0 0 0 0 0 127 0"/>
<feOffset/>
<feGaussianBlur stdDeviation="2"/>
<feColorMatrix type="matrix" values="0 0 0 0 0.870588 0 0 0 0 0.72549 0 0 0 0 0.568627 0 0 0 1 0"/>
<feBlend mode="normal" in2="BackgroundImageFix" result="effect1_dropShadow"/>
<feBlend mode="normal" in="SourceGraphic" in2="effect1_dropShadow" result="shape"/>
</filter>
<filter id="filter5_d" x="427.054" y="330.689" width="29.9557" height="29.4" filterUnits="userSpaceOnUse" color-interpolation-filters="sRGB">
<feFlood flood-opacity="0" result="BackgroundImageFix"/>
<feColorMatrix in="SourceAlpha" type="matrix" values="0 0 0 0 0 0 0 0 0 0 0 0 0 0 0 0 0 0 127 0"/>
<feOffset/>
<feGaussianBlur stdDeviation="2"/>
<feColorMatrix type="matrix" values="0 0 0 0 0.972549 0 0 0 0 0.835294 0 0 0 0 0.686275 0 0 0 1 0"/>
<feBlend mode="normal" in2="BackgroundImageFix" result="effect1_dropShadow"/>
<feBlend mode="normal" in="SourceGraphic" in2="effect1_dropShadow" result="shape"/>
</filter>
<filter id="filter6_d" x="572.07" y="338.366" width="12.4406" height="12.5592" filterUnits="userSpaceOnUse" color-interpolation-filters="sRGB">
<feFlood flood-opacity="0" result="BackgroundImageFix"/>
<feColorMatrix in="SourceAlpha" type="matrix" values="0 0 0 0 0 0 0 0 0 0 0 0 0 0 0 0 0 0 127 0"/>
<feOffset/>
<feGaussianBlur stdDeviation="1.5"/>
<feColorMatrix type="matrix" values="0 0 0 0 1 0 0 0 0 1 0 0 0 0 1 0 0 0 1 0"/>
<feBlend mode="normal" in2="BackgroundImageFix" result="effect1_dropShadow"/>
<feBlend mode="normal" in="SourceGraphic" in2="effect1_dropShadow" result="shape"/>
</filter>
<filter id="filter7_d" x="436.993" y="336.036" width="12.4406" height="12.5592" filterUnits="userSpaceOnUse" color-interpolation-filters="sRGB">
<feFlood flood-opacity="0" result="BackgroundImageFix"/>
<feColorMatrix in="SourceAlpha" type="matrix" values="0 0 0 0 0 0 0 0 0 0 0 0 0 0 0 0 0 0 127 0"/>
<feOffset/>
<feGaussianBlur stdDeviation="1.5"/>
<feColorMatrix type="matrix" values="0 0 0 0 1 0 0 0 0 1 0 0 0 0 1 0 0 0 1 0"/>
<feBlend mode="normal" in2="BackgroundImageFix" result="effect1_dropShadow"/>
<feBlend mode="normal" in="SourceGraphic" in2="effect1_dropShadow" result="shape"/>
</filter>
<filter id="filter8_d" x="502.706" y="340.578" width="63.3393" height="63.9645" filterUnits="userSpaceOnUse" color-interpolation-filters="sRGB">
<feFlood flood-opacity="0" result="BackgroundImageFix"/>
<feColorMatrix in="SourceAlpha" type="matrix" values="0 0 0 0 0 0 0 0 0 0 0 0 0 0 0 0 0 0 127 0"/>
<feOffset dy="4"/>
<feGaussianBlur stdDeviation="2"/>
<feColorMatrix type="matrix" values="0 0 0 0 0 0 0 0 0 0 0 0 0 0 0 0 0 0 0.25 0"/>
<feBlend mode="normal" in2="BackgroundImageFix" result="effect1_dropShadow"/>
<feBlend mode="normal" in="SourceGraphic" in2="effect1_dropShadow" result="shape"/>
</filter>
<filter id="filter9_d" x="451.972" y="340.719" width="56.7792" height="64.6804" filterUnits="userSpaceOnUse" color-interpolation-filters="sRGB">
<feFlood flood-opacity="0" result="BackgroundImageFix"/>
<feColorMatrix in="SourceAlpha" type="matrix" values="0 0 0 0 0 0 0 0 0 0 0 0 0 0 0 0 0 0 127 0"/>
<feOffset dy="4"/>
<feGaussianBlur stdDeviation="2"/>
<feColorMatrix type="matrix" values="0 0 0 0 0 0 0 0 0 0 0 0 0 0 0 0 0 0 0.25 0"/>
<feBlend mode="normal" in2="BackgroundImageFix" result="effect1_dropShadow"/>
<feBlend mode="normal" in="SourceGraphic" in2="effect1_dropShadow" result="shape"/>
</filter>
<filter id="filter10_i" x="348.021" y="393.233" width="338.104" height="344.483" filterUnits="userSpaceOnUse" color-interpolation-filters="sRGB">
<feFlood flood-opacity="0" result="BackgroundImageFix"/>
<feBlend mode="normal" in="SourceGraphic" in2="BackgroundImageFix" result="shape"/>
<feColorMatrix in="SourceAlpha" type="matrix" values="0 0 0 0 0 0 0 0 0 0 0 0 0 0 0 0 0 0 127 0" result="hardAlpha"/>
<feOffset dy="4"/>
<feGaussianBlur stdDeviation="2.5"/>
<feComposite in2="hardAlpha" operator="arithmetic" k2="-1" k3="1"/>
<feColorMatrix type="matrix" values="0 0 0 0 0 0 0 0 0 0 0 0 0 0 0 0 0 0 1 0"/>
<feBlend mode="normal" in2="shape" result="effect1_innerShadow"/>
</filter>
<filter id="filter11_f" x="558.299" y="391.868" width="73.2673" height="70.0039" filterUnits="userSpaceOnUse" color-interpolation-filters="sRGB">
<feFlood flood-opacity="0" result="BackgroundImageFix"/>
<feBlend mode="normal" in="SourceGraphic" in2="BackgroundImageFix" result="shape"/>
<feGaussianBlur stdDeviation="2" result="effect1_foregroundBlur"/>
</filter>
<filter id="filter12_f" x="382.077" y="391.868" width="73.2673" height="73.2673" filterUnits="userSpaceOnUse" color-interpolation-filters="sRGB">
<feFlood flood-opacity="0" result="BackgroundImageFix"/>
<feBlend mode="normal" in="SourceGraphic" in2="BackgroundImageFix" result="shape"/>
<feGaussianBlur stdDeviation="2" result="effect1_foregroundBlur"/>
</filter>
<linearGradient id="paint0_linear" x1="521.323" y1="452.811" x2="454.949" y2="534.324" gradientUnits="userSpaceOnUse">
<stop stop-color="#FF0000"/>
<stop offset="1" stop-color="white" stop-opacity="0"/>
</linearGradient>
<linearGradient id="paint1_linear" x1="444.723" y1="384.107" x2="413.465" y2="452.136" gradientUnits="userSpaceOnUse">
<stop stop-color="#14D6F0" stop-opacity="0.37"/>
<stop offset="1" stop-color="white" stop-opacity="0"/>
</linearGradient>
<linearGradient id="paint2_linear" x1="604.073" y1="335.2" x2="560.799" y2="398.509" gradientUnits="userSpaceOnUse">
<stop stop-color="#06C3FF"/>
<stop offset="1" stop-color="white"/>
</linearGradient>
</defs>
</svg>
