<svg width="1096" height="748" viewBox="0 0 1096 748" fill="none" xmlns="http://www.w3.org/2000/svg">
<path d="M947.904 224.377C955.617 242.64 950.774 265.294 935.19 290.711C919.614 316.115 893.367 344.176 858.485 373.174C788.728 431.166 684.532 492.828 562.431 544.398C440.331 595.969 323.48 627.669 233.272 637.241C188.165 642.027 149.748 641.277 120.677 634.731C91.5918 628.181 71.9757 615.857 64.2623 597.594C56.5489 579.332 61.3917 556.678 76.9756 531.261C92.5515 505.857 118.799 477.796 153.681 448.798C223.438 390.806 327.634 329.144 449.735 277.574C571.835 226.003 688.686 194.303 778.894 184.731C824.001 179.945 862.418 180.694 891.489 187.241C920.574 193.791 940.19 206.115 947.904 224.377Z" stroke="black"/>
<path d="M1069.27 361.847L1072.15 349.188L1069.27 324L1065.98 349.188L1069.27 361.847Z" fill="#040705"/>
<path d="M24.1543 352.653L26.8051 342.066L24.1543 321L21.1326 342.066L24.1543 352.653Z" fill="#040705"/>
<path d="M1064.22 349.902L1070.39 353.501L1096 349.895L1073.06 346.548L1064.22 349.902Z" fill="#040705"/>
<path d="M19.5127 342.662L25.1829 345.672L48.7335 342.656L27.6362 339.857L19.5127 342.662Z" fill="#040705"/>
<path d="M1069 344.082L1065.93 350.977L1070.06 379L1072.15 353.77L1069 344.082Z" fill="#040705"/>
<path d="M23.9072 337.795L21.0873 343.562L24.8841 366.999L26.8049 345.898L23.9072 337.795Z" fill="#040705"/>
<path d="M1074.78 349.947L1068.65 346.26L1043 349.5L1065.9 353.175L1074.78 349.947Z" fill="#040705"/>
<path d="M29.2188 342.7L23.5881 339.617L0.000301588 342.326L21.0595 345.4L29.2188 342.7Z" fill="#040705"/>
<path d="M92.33 387H119.87V386.55L105.29 385.2V355.5L119.87 355.95C126.44 356.22 127.07 363.96 127.07 367.65V370.35H127.52V340.74H127.07V343.71C127.07 346.95 126.35 354.06 119.87 354.33L105.29 354.87V323.64H115.01C132.65 323.64 137.24 326.43 137.24 342.81H137.69V323.01H92.33V323.46L99.26 324.81V385.2L92.33 386.55V387ZM165.459 386.37C162.219 386.37 158.889 386.28 155.739 385.2V353.88L167.619 354.33C176.889 354.78 176.799 362.34 176.799 369.63H177.249V338.22H176.799C176.799 345.51 176.889 352.44 167.619 352.71L155.739 353.25V323.64H166.269C185.619 323.64 188.679 328.77 189.129 342.81H189.579V323.01H142.779V323.46L149.709 324.81V385.2L142.779 386.55V387H190.929V361.53H190.479C190.389 378.99 188.319 386.37 165.459 386.37ZM197.535 387H222.825V386.55L210.495 385.2V355.23L218.865 355.77C225.525 356.13 227.325 359.55 230.295 366.66L233.355 374.22C236.145 380.97 239.295 387 247.485 387H253.425V386.55L248.025 385.74C245.415 385.29 243.525 382.86 241.455 377.73L238.305 370.35C234.795 361.89 231.285 356.58 224.265 355.5C234.075 354.6 242.175 348.93 242.175 338.13C242.175 327.06 235.245 323.91 224.355 323.19C222.825 323.01 219.585 323.01 218.955 323.01H197.535V323.46L204.465 324.81V385.2L197.535 386.55V387ZM210.495 354.6V323.64H218.955C218.865 323.64 222.645 323.73 224.085 323.91C231.015 324.63 235.695 329.13 235.695 338.22C235.695 350.28 227.145 354.24 220.935 354.42L210.495 354.6ZM250.539 387H268.449V386.55L259.449 385.2L257.919 324.81L299.589 387.36H300.489L300.759 324.81L310.749 323.46V323.01H291.849V323.46L298.779 324.81L299.859 377.19L264.039 323.01H250.539V323.46L257.469 324.81V385.2L250.539 386.55V387ZM311.11 387H329.92V386.55L320.02 385.2L325.96 367.11L349.99 367.02L356.11 385.2L346.12 386.55V387H369.34V386.55L362.41 385.2L341.26 321.66H340.36L318.04 385.2L311.11 386.55V387ZM326.14 366.48L337.84 330.3L349.36 365.13L326.14 366.48ZM373.411 387H391.321V386.55L382.321 385.2L380.791 324.81L422.461 387.36H423.361L423.631 324.81L433.621 323.46V323.01H414.721V323.46L421.651 324.81L422.731 377.19L386.911 323.01H373.411V323.46L380.341 324.81V385.2L373.411 386.55V387ZM436.861 387H459.811C461.251 387 464.671 387 466.561 386.82C483.481 385.74 493.561 373.05 493.561 354.6C493.561 336.69 484.111 324.27 466.021 323.19C463.951 323.01 461.791 323.01 459.811 323.01H436.861V323.46L443.791 324.81V385.2L436.861 386.55V387ZM459.811 386.37C456.481 386.37 453.061 386.28 449.821 385.2V323.64H459.811C461.791 323.64 464.581 323.73 466.471 323.91C482.851 325.08 486.631 339.3 486.631 354.42C486.631 369.81 482.131 385.02 466.561 386.19C464.761 386.37 461.161 386.37 459.811 386.37ZM496.999 387H515.809V386.55L505.909 385.2L511.849 367.11L535.879 367.02L541.999 385.2L532.009 386.55V387H555.229V386.55L548.299 385.2L527.149 321.66H526.249L503.929 385.2L496.999 386.55V387ZM512.029 366.48L523.729 330.3L535.249 365.13L512.029 366.48ZM574.518 387H593.328V386.55L583.428 385.2L589.368 367.11L613.398 367.02L619.518 385.2L609.528 386.55V387H632.748V386.55L625.818 385.2L604.668 321.66H603.768L581.448 385.2L574.518 386.55V387ZM589.548 366.48L601.248 330.3L612.768 365.13L589.548 366.48ZM662.019 323.64H672.729L636.729 386.55V387H681.639V361.53H681.189C681.099 378.99 679.209 386.37 656.979 386.37H644.379L680.379 323.46V323.01H638.619V342.81H639.069C639.519 328.77 642.669 323.64 662.019 323.64ZM711.875 386.37C708.635 386.37 705.305 386.28 702.155 385.2V353.88L714.035 354.33C723.305 354.78 723.215 362.34 723.215 369.63H723.665V338.22H723.215C723.215 345.51 723.305 352.44 714.035 352.71L702.155 353.25V323.64H712.685C732.035 323.64 735.095 328.77 735.545 342.81H735.995V323.01H689.195V323.46L696.125 324.81V385.2L689.195 386.55V387H737.345V361.53H736.895C736.805 378.99 734.735 386.37 711.875 386.37ZM790.301 324.81L772.391 379.71L754.301 324.81L764.291 323.46V323.01H741.071V323.46L748.001 324.81L769.421 388.44H770.051L792.371 324.81L799.301 323.46V323.01H780.401V323.46L790.301 324.81ZM825.781 386.37C822.541 386.37 819.211 386.28 816.061 385.2V353.88L827.941 354.33C837.211 354.78 837.121 362.34 837.121 369.63H837.571V338.22H837.121C837.121 345.51 837.211 352.44 827.941 352.71L816.061 353.25V323.64H826.591C845.941 323.64 849.001 328.77 849.451 342.81H849.901V323.01H803.101V323.46L810.031 324.81V385.2L803.101 386.55V387H851.251V361.53H850.801C850.711 378.99 848.641 386.37 825.781 386.37ZM857.857 387H880.807C882.247 387 885.667 387 887.557 386.82C904.477 385.74 914.557 373.05 914.557 354.6C914.557 336.69 905.107 324.27 887.017 323.19C884.947 323.01 882.787 323.01 880.807 323.01H857.857V323.46L864.787 324.81V385.2L857.857 386.55V387ZM880.807 386.37C877.477 386.37 874.057 386.28 870.817 385.2V323.64H880.807C882.787 323.64 885.577 323.73 887.467 323.91C903.847 325.08 907.627 339.3 907.627 354.42C907.627 369.81 903.127 385.02 887.557 386.19C885.757 386.37 882.157 386.37 880.807 386.37ZM949.405 388.08C966.325 388.08 977.665 373.95 977.665 354.69C977.665 336.69 966.325 321.93 949.405 321.93C932.485 321.93 921.145 336.69 921.145 354.69C921.145 373.95 932.485 388.08 949.405 388.08ZM949.405 387.45C932.035 387.45 928.435 368.01 928.435 354.69C928.435 342.9 931.315 322.56 949.405 322.56C966.775 322.56 970.375 340.38 970.375 354.69C970.375 369.36 966.325 387.45 949.405 387.45Z" fill="black"/>
<path d="M117.416 452.072V454.504H97.128V473.256H114.856V475.688H97.128V497H94.248V452.072H117.416ZM127.941 469.416C128.794 466.856 130.309 464.915 132.485 463.592C134.661 462.227 137.434 461.544 140.805 461.544V464.552H139.845C136.431 464.552 133.594 465.533 131.333 467.496C129.071 469.416 127.941 472.573 127.941 476.968V497H125.061V462.248H127.941V469.416ZM162.732 497.512C159.489 497.512 156.566 496.787 153.964 495.336C151.361 493.885 149.313 491.816 147.82 489.128C146.369 486.397 145.644 483.219 145.644 479.592C145.644 476.008 146.39 472.872 147.884 470.184C149.377 467.453 151.425 465.384 154.028 463.976C156.673 462.525 159.617 461.8 162.86 461.8C166.102 461.8 169.025 462.525 171.628 463.976C174.23 465.384 176.257 467.432 177.708 470.12C179.201 472.808 179.948 475.965 179.948 479.592C179.948 483.219 179.201 486.397 177.708 489.128C176.214 491.816 174.145 493.885 171.5 495.336C168.897 496.787 165.974 497.512 162.732 497.512ZM162.732 494.952C165.249 494.952 167.596 494.397 169.772 493.288C171.99 492.136 173.761 490.408 175.083 488.104C176.406 485.8 177.068 482.963 177.068 479.592C177.068 476.264 176.406 473.448 175.083 471.144C173.761 468.84 172.012 467.133 169.836 466.024C167.66 464.872 165.313 464.296 162.796 464.296C160.278 464.296 157.932 464.872 155.756 466.024C153.622 467.133 151.894 468.84 150.572 471.144C149.249 473.448 148.588 476.264 148.588 479.592C148.588 482.963 149.228 485.8 150.508 488.104C151.83 490.408 153.558 492.136 155.692 493.288C157.868 494.397 160.214 494.952 162.732 494.952ZM204.366 461.544C208.504 461.544 211.875 462.824 214.478 465.384C217.08 467.901 218.382 471.656 218.382 476.648V497H215.566V476.84C215.566 472.701 214.52 469.544 212.43 467.368C210.339 465.149 207.502 464.04 203.918 464.04C200.163 464.04 197.155 465.235 194.894 467.624C192.675 470.013 191.566 473.555 191.566 478.248V497H188.686V462.248H191.566V469.608C192.547 467.005 194.168 465.021 196.43 463.656C198.734 462.248 201.379 461.544 204.366 461.544ZM232.849 464.744V487.72C232.849 490.28 233.318 492.051 234.257 493.032C235.195 493.971 236.859 494.44 239.249 494.44H243.153V497H238.801C235.771 497 233.531 496.296 232.081 494.888C230.673 493.437 229.969 491.048 229.969 487.72V464.744H224.721V462.248H229.969V453.416H232.849V462.248H243.153V464.744H232.849ZM269.436 471.72V474.216H245.372V471.72H269.436ZM312.919 477.288C312.919 478.824 312.876 479.976 312.791 480.744H282.775C282.86 483.859 283.543 486.483 284.823 488.616C286.103 490.749 287.788 492.349 289.879 493.416C291.97 494.483 294.252 495.016 296.727 495.016C300.14 495.016 302.999 494.184 305.303 492.52C307.607 490.813 309.058 488.509 309.655 485.608H312.663C311.98 489.149 310.231 492.029 307.415 494.248C304.599 496.424 301.036 497.512 296.727 497.512C293.484 497.512 290.583 496.787 288.023 495.336C285.463 493.885 283.458 491.816 282.007 489.128C280.556 486.397 279.831 483.219 279.831 479.592C279.831 475.965 280.535 472.808 281.943 470.12C283.394 467.432 285.399 465.384 287.959 463.976C290.519 462.525 293.442 461.8 296.727 461.8C300.055 461.8 302.935 462.525 305.367 463.976C307.842 465.384 309.719 467.283 310.999 469.672C312.279 472.019 312.919 474.557 312.919 477.288ZM310.039 478.376C310.167 475.304 309.612 472.701 308.375 470.568C307.18 468.435 305.538 466.856 303.447 465.832C301.356 464.765 299.095 464.232 296.663 464.232C294.231 464.232 291.97 464.765 289.879 465.832C287.831 466.856 286.146 468.435 284.823 470.568C283.543 472.701 282.86 475.304 282.775 478.376H310.039ZM337.303 461.544C341.442 461.544 344.812 462.824 347.415 465.384C350.018 467.901 351.319 471.656 351.319 476.648V497H348.503V476.84C348.503 472.701 347.458 469.544 345.367 467.368C343.276 465.149 340.439 464.04 336.855 464.04C333.1 464.04 330.092 465.235 327.831 467.624C325.612 470.013 324.503 473.555 324.503 478.248V497H321.623V462.248H324.503V469.608C325.484 467.005 327.106 465.021 329.367 463.656C331.671 462.248 334.316 461.544 337.303 461.544ZM359.706 479.592C359.706 476.008 360.41 472.872 361.818 470.184C363.269 467.496 365.253 465.427 367.77 463.976C370.33 462.525 373.231 461.8 376.474 461.8C380.015 461.8 383.087 462.696 385.69 464.488C388.293 466.237 390.127 468.52 391.194 471.336V449.64H394.074V497H391.194V487.784C390.17 490.643 388.378 492.989 385.818 494.824C383.258 496.616 380.143 497.512 376.474 497.512C373.231 497.512 370.33 496.787 367.77 495.336C365.253 493.843 363.269 491.752 361.818 489.064C360.41 486.333 359.706 483.176 359.706 479.592ZM391.194 479.592C391.194 476.563 390.554 473.896 389.274 471.592C388.037 469.245 386.33 467.453 384.154 466.216C381.978 464.936 379.546 464.296 376.858 464.296C374.042 464.296 371.567 464.915 369.434 466.152C367.301 467.347 365.637 469.096 364.442 471.4C363.247 473.704 362.65 476.435 362.65 479.592C362.65 482.749 363.247 485.48 364.442 487.784C365.637 490.088 367.301 491.859 369.434 493.096C371.61 494.333 374.085 494.952 376.858 494.952C379.546 494.952 381.978 494.333 384.154 493.096C386.373 491.816 388.101 490.024 389.338 487.72C390.575 485.373 391.194 482.664 391.194 479.592ZM420.831 479.592C420.831 476.008 421.535 472.872 422.943 470.184C424.394 467.496 426.378 465.427 428.895 463.976C431.455 462.525 434.356 461.8 437.599 461.8C441.14 461.8 444.212 462.696 446.815 464.488C449.418 466.237 451.252 468.52 452.319 471.336V449.64H455.199V497H452.319V487.784C451.295 490.643 449.503 492.989 446.943 494.824C444.383 496.616 441.268 497.512 437.599 497.512C434.356 497.512 431.455 496.787 428.895 495.336C426.378 493.843 424.394 491.752 422.943 489.064C421.535 486.333 420.831 483.176 420.831 479.592ZM452.319 479.592C452.319 476.563 451.679 473.896 450.399 471.592C449.162 469.245 447.455 467.453 445.279 466.216C443.103 464.936 440.671 464.296 437.983 464.296C435.167 464.296 432.692 464.915 430.559 466.152C428.426 467.347 426.762 469.096 425.567 471.4C424.372 473.704 423.775 476.435 423.775 479.592C423.775 482.749 424.372 485.48 425.567 487.784C426.762 490.088 428.426 491.859 430.559 493.096C432.735 494.333 435.21 494.952 437.983 494.952C440.671 494.952 443.103 494.333 445.279 493.096C447.498 491.816 449.226 490.024 450.463 487.72C451.7 485.373 452.319 482.664 452.319 479.592ZM496.982 477.288C496.982 478.824 496.939 479.976 496.854 480.744H466.838C466.923 483.859 467.606 486.483 468.885 488.616C470.166 490.749 471.851 492.349 473.942 493.416C476.032 494.483 478.315 495.016 480.79 495.016C484.203 495.016 487.062 494.184 489.366 492.52C491.67 490.813 493.12 488.509 493.718 485.608H496.726C496.043 489.149 494.294 492.029 491.478 494.248C488.662 496.424 485.099 497.512 480.79 497.512C477.547 497.512 474.646 496.787 472.086 495.336C469.526 493.885 467.52 491.816 466.07 489.128C464.619 486.397 463.894 483.219 463.894 479.592C463.894 475.965 464.598 472.808 466.006 470.12C467.456 467.432 469.462 465.384 472.022 463.976C474.582 462.525 477.504 461.8 480.79 461.8C484.118 461.8 486.998 462.525 489.43 463.976C491.904 465.384 493.782 467.283 495.062 469.672C496.342 472.019 496.982 474.557 496.982 477.288ZM494.102 478.376C494.23 475.304 493.675 472.701 492.438 470.568C491.243 468.435 489.6 466.856 487.51 465.832C485.419 464.765 483.158 464.232 480.726 464.232C478.294 464.232 476.032 464.765 473.942 465.832C471.894 466.856 470.208 468.435 468.885 470.568C467.606 472.701 466.923 475.304 466.838 478.376H494.102ZM517.462 493.864L530.262 462.248H533.333L518.934 497H515.926L501.526 462.248H504.661L517.462 493.864ZM570.982 477.288C570.982 478.824 570.939 479.976 570.854 480.744H540.838C540.923 483.859 541.606 486.483 542.885 488.616C544.166 490.749 545.851 492.349 547.942 493.416C550.032 494.483 552.315 495.016 554.79 495.016C558.203 495.016 561.062 494.184 563.366 492.52C565.67 490.813 567.12 488.509 567.718 485.608H570.726C570.043 489.149 568.294 492.029 565.478 494.248C562.662 496.424 559.099 497.512 554.79 497.512C551.547 497.512 548.646 496.787 546.086 495.336C543.526 493.885 541.52 491.816 540.07 489.128C538.619 486.397 537.894 483.219 537.894 479.592C537.894 475.965 538.598 472.808 540.006 470.12C541.456 467.432 543.462 465.384 546.022 463.976C548.582 462.525 551.504 461.8 554.79 461.8C558.118 461.8 560.998 462.525 563.43 463.976C565.904 465.384 567.782 467.283 569.062 469.672C570.342 472.019 570.982 474.557 570.982 477.288ZM568.102 478.376C568.23 475.304 567.675 472.701 566.438 470.568C565.243 468.435 563.6 466.856 561.51 465.832C559.419 464.765 557.158 464.232 554.726 464.232C552.294 464.232 550.032 464.765 547.942 465.832C545.894 466.856 544.208 468.435 542.885 470.568C541.606 472.701 540.923 475.304 540.838 478.376H568.102ZM582.566 449.64V497H579.686V449.64H582.566ZM608.419 497.512C605.176 497.512 602.254 496.787 599.651 495.336C597.048 493.885 595 491.816 593.507 489.128C592.056 486.397 591.331 483.219 591.331 479.592C591.331 476.008 592.078 472.872 593.571 470.184C595.064 467.453 597.112 465.384 599.715 463.976C602.36 462.525 605.304 461.8 608.547 461.8C611.79 461.8 614.712 462.525 617.315 463.976C619.918 465.384 621.944 467.432 623.395 470.12C624.888 472.808 625.635 475.965 625.635 479.592C625.635 483.219 624.888 486.397 623.395 489.128C621.902 491.816 619.832 493.885 617.187 495.336C614.584 496.787 611.662 497.512 608.419 497.512ZM608.419 494.952C610.936 494.952 613.283 494.397 615.459 493.288C617.678 492.136 619.448 490.408 620.771 488.104C622.094 485.8 622.755 482.963 622.755 479.592C622.755 476.264 622.094 473.448 620.771 471.144C619.448 468.84 617.699 467.133 615.523 466.024C613.347 464.872 611 464.296 608.483 464.296C605.966 464.296 603.619 464.872 601.443 466.024C599.31 467.133 597.582 468.84 596.259 471.144C594.936 473.448 594.275 476.264 594.275 479.592C594.275 482.963 594.915 485.8 596.195 488.104C597.518 490.408 599.246 492.136 601.379 493.288C603.555 494.397 605.902 494.952 608.419 494.952ZM637.253 471.4C638.234 468.584 640.005 466.28 642.565 464.488C645.168 462.696 648.304 461.8 651.973 461.8C655.216 461.8 658.096 462.525 660.613 463.976C663.173 465.427 665.157 467.496 666.565 470.184C668.016 472.872 668.741 476.008 668.741 479.592C668.741 483.176 668.016 486.333 666.565 489.064C665.157 491.752 663.173 493.843 660.613 495.336C658.096 496.787 655.216 497.512 651.973 497.512C648.346 497.512 645.232 496.616 642.629 494.824C640.069 492.989 638.277 490.685 637.253 487.912V513.384H634.373V462.248H637.253V471.4ZM665.797 479.592C665.797 476.435 665.2 473.704 664.005 471.4C662.81 469.096 661.125 467.347 658.949 466.152C656.816 464.915 654.341 464.296 651.525 464.296C648.837 464.296 646.405 464.936 644.229 466.216C642.053 467.453 640.346 469.245 639.109 471.592C637.872 473.896 637.253 476.563 637.253 479.592C637.253 482.664 637.872 485.373 639.109 487.72C640.346 490.024 642.053 491.816 644.229 493.096C646.405 494.333 648.837 494.952 651.525 494.952C654.341 494.952 656.816 494.333 658.949 493.096C661.125 491.859 662.81 490.088 664.005 487.784C665.2 485.48 665.797 482.749 665.797 479.592ZM708.732 477.288C708.732 478.824 708.689 479.976 708.604 480.744H678.588C678.673 483.859 679.356 486.483 680.635 488.616C681.916 490.749 683.601 492.349 685.692 493.416C687.782 494.483 690.065 495.016 692.54 495.016C695.953 495.016 698.812 494.184 701.116 492.52C703.42 490.813 704.87 488.509 705.468 485.608H708.476C707.793 489.149 706.044 492.029 703.228 494.248C700.412 496.424 696.849 497.512 692.54 497.512C689.297 497.512 686.396 496.787 683.836 495.336C681.276 493.885 679.27 491.816 677.82 489.128C676.369 486.397 675.644 483.219 675.644 479.592C675.644 475.965 676.348 472.808 677.756 470.12C679.206 467.432 681.212 465.384 683.772 463.976C686.332 462.525 689.254 461.8 692.54 461.8C695.868 461.8 698.748 462.525 701.18 463.976C703.654 465.384 705.532 467.283 706.812 469.672C708.092 472.019 708.732 474.557 708.732 477.288ZM705.852 478.376C705.98 475.304 705.425 472.701 704.188 470.568C702.993 468.435 701.35 466.856 699.26 465.832C697.169 464.765 694.908 464.232 692.476 464.232C690.044 464.232 687.782 464.765 685.692 465.832C683.644 466.856 681.958 468.435 680.635 470.568C679.356 472.701 678.673 475.304 678.588 478.376H705.852ZM720.316 469.416C721.169 466.856 722.684 464.915 724.86 463.592C727.036 462.227 729.809 461.544 733.18 461.544V464.552H732.22C728.806 464.552 725.969 465.533 723.708 467.496C721.446 469.416 720.316 472.573 720.316 476.968V497H717.436V462.248H720.316V469.416Z" fill="black"/>
</svg>
