<svg width="603" height="602" viewBox="0 0 603 602" fill="none" xmlns="http://www.w3.org/2000/svg">
<path d="M262.459 106.493L270.35 89.4282C272.043 85.7693 276.532 84.3824 279.993 86.4492C280.627 86.8279 281.195 87.3074 281.675 87.869L292.486 100.528L304.992 114.146C307.703 117.098 310.645 119.829 313.79 122.313C320.816 127.864 326.798 134.621 331.455 142.27L340.484 157.099L343.285 162C349.737 173.291 353.978 185.709 355.781 198.588C356.89 206.51 357.067 214.534 356.307 222.497L354.937 236.86C354.937 249.944 349.009 262.323 338.816 270.526L336.085 272.723L327.006 282.255C326.201 283.1 325.283 283.829 324.278 284.422L316.842 288.808C315.974 289.32 315.588 290.375 315.921 291.326C317.975 297.194 314.543 303.558 308.512 305.066L307.179 305.399C300.109 307.894 292.666 309.17 285.168 309.17L280.787 309.17L272.242 309.17C267.487 309.17 262.753 308.536 258.165 307.284L258.105 307.264C254.411 306.033 250.995 304.086 248.051 301.535L246.43 300.13C244.226 298.22 241.63 296.815 238.826 296.014C235.84 295.161 233.094 293.624 230.805 291.526L224.315 285.576C220.92 282.464 217.913 278.954 215.359 275.123L211.608 269.497C208.31 264.55 205.722 259.165 203.919 253.499L203.326 251.634C202.602 249.359 201.681 247.151 200.575 245.035C197.232 238.645 195.626 231.488 195.92 224.282L196.582 207.998L197.211 183.491L198.395 175.204C199.266 169.104 201.714 163.337 205.498 158.474C208.461 154.665 210.614 150.29 211.824 145.618L212.92 141.389C216.443 131.994 224.517 125.047 234.333 122.965L240.904 121.571L245.201 120.518C250.352 119.257 254.993 116.449 258.501 112.472L258.72 112.224C260.237 110.504 261.496 108.574 262.459 106.493Z" fill="#F8D5AF" stroke="black"/>
<path d="M249.368 254.498L257.986 255.181L261.137 255.383L264.512 255.541L270.449 255.541L271.99 255.722C274.326 255.998 276.687 255.984 279.02 255.681C280.638 255.471 282.27 255.399 283.9 255.468L287.459 255.616L293.186 255.942L293.555 255.966C296.016 256.122 298.486 256.066 300.938 255.799L302.783 255.181L298.199 260.365L294.87 263.321C293.134 264.862 291.164 266.155 289.063 267.141C288.002 267.639 286.895 268.062 285.772 268.398C283.569 269.056 281.282 269.391 278.983 269.391L277.121 269.391C274.892 269.391 272.666 269.21 270.466 268.85L269.508 268.694L267.936 268.41C266.045 268.068 264.227 267.401 262.564 266.438C260.643 265.371 258.844 264.1 257.196 262.647L256.534 262.062C254.523 260.289 252.651 258.365 250.934 256.306L250.799 256.145L249.998 255.129L249.368 254.498Z" fill="#FF4444" fill-opacity="0.76"/>
<path d="M249.368 254.498L257.986 255.181L261.137 255.383L264.512 255.541L270.449 255.541L271.99 255.722C274.326 255.998 276.687 255.984 279.02 255.681C280.638 255.471 282.27 255.399 283.9 255.468L287.459 255.616L293.186 255.942L293.555 255.966C296.016 256.122 298.486 256.066 300.938 255.799L302.783 255.181L298.199 260.365L294.87 263.321C293.134 264.862 291.164 266.155 289.063 267.141C288.002 267.639 286.895 268.062 285.772 268.398C283.569 269.056 281.282 269.391 278.983 269.391L277.121 269.391C274.892 269.391 272.666 269.21 270.466 268.85L269.508 268.694L267.936 268.41C266.045 268.068 264.227 267.401 262.564 266.438C260.643 265.371 258.844 264.1 257.196 262.647L256.534 262.062C254.523 260.289 252.651 258.365 250.934 256.306L250.799 256.145L249.998 255.129L249.368 254.498Z" fill="url(#paint0_linear)"/>
<path d="M250.799 256.145L256.068 257.355L260.836 258.768L265.589 259.954L271.245 260.969L278.351 261.437L282.45 261.294L288.113 260.597L292.049 259.666V259.666C294.952 259.107 297.711 257.969 300.164 256.32L300.938 255.799M250.799 256.145L250.934 256.306C252.651 258.365 254.523 260.289 256.534 262.062V262.062L257.196 262.647C258.844 264.1 260.643 265.371 262.564 266.438V266.438V266.438C264.227 267.401 266.045 268.068 267.936 268.41L269.508 268.694L270.466 268.85C272.666 269.21 274.892 269.391 277.121 269.391V269.391L278.983 269.391C281.282 269.391 283.569 269.056 285.772 268.398V268.398C286.895 268.062 288.002 267.639 289.063 267.141V267.141C291.164 266.155 293.134 264.862 294.87 263.321L298.199 260.365L302.783 255.181L300.938 255.799M250.799 256.145L249.998 255.129L249.368 254.498L257.986 255.181L261.137 255.383L264.512 255.541L270.449 255.541L271.99 255.722C274.326 255.998 276.687 255.984 279.02 255.681V255.681C280.638 255.471 282.27 255.399 283.9 255.468L287.459 255.616L293.186 255.942L293.555 255.966C296.016 256.122 298.486 256.066 300.938 255.799V255.799" stroke="#E42B2B"/>
<path d="M231.262 160.637L226.898 160.218C222.561 159.801 218.363 161.878 216.063 165.579L211.549 173.263L215.786 170.32C219.315 167.868 223.52 166.577 227.816 166.625L254.552 171.587C256.549 171.958 258.406 170.462 258.468 168.432C258.519 166.792 257.362 165.362 255.747 165.07L231.262 160.637Z" fill="#2A231C"/>
<g filter="url(#filter0_d)">
<path d="M257.345 219.774L256.515 221.951C256.023 223.242 255.723 224.597 255.625 225.975L255.476 228.088C255.415 228.943 255.56 229.8 255.899 230.587V230.587C256.538 232.073 257.814 233.192 259.372 233.631L259.67 233.715C260.272 233.884 260.896 233.959 261.52 233.936L264.123 233.842C265.257 233.801 266.373 234.137 267.295 234.799V234.799C267.613 235.027 267.956 235.218 268.317 235.369L270.3 236.192L270.481 236.275C271.612 236.796 272.84 237.072 274.085 237.083V237.083L274.426 237.086C275.446 237.095 276.456 236.884 277.387 236.467V236.467C277.699 236.328 278 236.166 278.288 235.984L280.612 234.512V234.512C281.124 234.135 281.744 233.933 282.38 233.934L283.581 233.938C283.982 233.939 284.382 233.977 284.777 234.05L285.18 234.126C285.759 234.234 286.345 234.296 286.934 234.311L288.068 234.34L288.48 234.292C289.539 234.17 290.516 233.659 291.221 232.859L291.371 232.69C291.434 232.619 291.503 232.553 291.577 232.493V232.493C291.804 232.311 291.979 232.072 292.085 231.802L292.649 230.369C292.983 229.521 293.15 228.617 293.142 227.705V227.705C293.139 227.369 293.112 227.034 293.062 226.702L292.714 224.407C292.552 223.341 292.221 222.308 291.733 221.346V221.346" stroke="#9B846B"/>
</g>
<path d="M312.836 169.104L297.219 171.854C295.168 172.216 293.243 170.752 293.044 168.678C292.872 166.884 294.064 165.242 295.824 164.85L302.619 163.34L311.535 162.169L322.466 161.03C324.999 160.977 327.474 161.793 329.478 163.342L332.315 165.536L338.6 172.525C330.569 168.76 321.571 167.565 312.836 169.104Z" fill="#2B231C"/>
<g filter="url(#filter1_d)">
<path d="M223.939 185.508L220.926 182.401C220.612 182.077 220.766 181.533 221.205 181.423L224.77 180.834L229.181 180.144L233.252 179.578L237.895 179.578L241.249 180.032C241.794 180.106 242.323 180.269 242.815 180.515L245.125 181.671L247.839 183.536L251.254 186.487L254.383 189.437C254.527 189.573 254.519 189.805 254.366 189.93C254.333 189.958 254.294 189.979 254.252 189.991L251.31 190.874C251.032 190.958 250.748 191.017 250.459 191.051L245.125 191.681L244.445 191.681L240.048 191.681L235.341 191.141C235.069 191.109 234.799 191.056 234.535 190.98L232.234 190.321L229.859 189.304L227.033 187.81C226.797 187.685 226.571 187.541 226.358 187.38L224.295 185.824C224.168 185.728 224.049 185.622 223.939 185.508Z" fill="white"/>
<path d="M223.939 185.508L220.926 182.401C220.612 182.077 220.766 181.533 221.205 181.423L224.77 180.834L229.181 180.144L233.252 179.578L237.895 179.578L241.249 180.032C241.794 180.106 242.323 180.269 242.815 180.515L245.125 181.671L247.839 183.536L251.254 186.487L254.383 189.437C254.527 189.573 254.519 189.805 254.366 189.93C254.333 189.958 254.294 189.979 254.252 189.991L251.31 190.874C251.032 190.958 250.748 191.017 250.459 191.051L245.125 191.681L244.445 191.681L240.048 191.681L235.341 191.141C235.069 191.109 234.799 191.056 234.535 190.98L232.234 190.321L229.859 189.304L227.033 187.81C226.797 187.685 226.571 187.541 226.358 187.38L224.295 185.824C224.168 185.728 224.049 185.622 223.939 185.508Z" stroke="#A08A72" stroke-width="0.3"/>
</g>
<g filter="url(#filter2_d)">
<path d="M303.218 192.778L296.408 191.762C296.372 191.756 296.336 191.754 296.299 191.754C295.669 191.754 295.33 191.014 295.741 190.537L297.296 188.73L299.449 186.846L302.487 184.749C302.973 184.413 303.489 184.121 304.027 183.876L307.165 182.449L309.191 181.71C309.646 181.545 310.111 181.412 310.585 181.314L311.203 181.186C311.871 181.047 312.551 180.978 313.234 180.978L315.978 180.978L317.152 180.978C317.625 180.978 318.098 181.011 318.566 181.078L322.262 181.606L326.76 182.36C326.815 182.369 326.808 182.449 326.753 182.449C326.737 182.449 326.722 182.458 326.714 182.472L324.619 186.041C324.306 186.576 323.925 187.068 323.487 187.506L322.262 188.73C321.892 189.205 321.441 189.611 320.931 189.93L319.549 190.794L318.604 191.311C317.802 191.75 316.944 192.077 316.053 192.283L313.121 192.96C312.383 193.131 311.628 193.217 310.871 193.217L307.165 193.217L303.218 192.778Z" fill="white"/>
<path d="M303.218 192.778L296.408 191.762C296.372 191.756 296.336 191.754 296.299 191.754C295.669 191.754 295.33 191.014 295.741 190.537L297.296 188.73L299.449 186.846L302.487 184.749C302.973 184.413 303.489 184.121 304.027 183.876L307.165 182.449L309.191 181.71C309.646 181.545 310.111 181.412 310.585 181.314L311.203 181.186C311.871 181.047 312.551 180.978 313.234 180.978L315.978 180.978L317.152 180.978C317.625 180.978 318.098 181.011 318.566 181.078L322.262 181.606L326.76 182.36C326.815 182.369 326.808 182.449 326.753 182.449C326.737 182.449 326.722 182.458 326.714 182.472L324.619 186.041C324.306 186.576 323.925 187.068 323.487 187.506L322.262 188.73C321.892 189.205 321.441 189.611 320.931 189.93L319.549 190.794L318.604 191.311C317.802 191.75 316.944 192.077 316.053 192.283L313.121 192.96C312.383 193.131 311.628 193.217 310.871 193.217L307.165 193.217L303.218 192.778Z" stroke="#A08A72" stroke-width="0.3"/>
</g>
<path d="M244.465 187.239C243.946 189.965 241.606 191.321 238.843 191.585V191.585C236.216 191.836 232.961 190.786 231.969 188.34C231.434 187.022 231.208 185.595 231.37 184.26C231.649 181.968 233.704 180.294 235.98 179.904C236.544 179.808 237.109 179.761 237.67 179.752C240.838 179.702 244.181 181.435 244.562 184.58C244.668 185.456 244.632 186.361 244.465 187.239Z" fill="black"/>
<g filter="url(#filter3_d)">
<path d="M318.379 188.477C318.068 191.074 316.203 192.805 313.597 193.029V193.029C310.973 193.255 307.521 192.943 306.304 190.607C305.656 189.364 305.375 187.957 305.516 186.553C305.731 184.402 307.276 182.517 309.317 181.807C309.666 181.686 310.014 181.594 310.363 181.526C313.667 180.882 317.58 182.293 318.269 185.587C318.463 186.516 318.496 187.5 318.379 188.477Z" fill="black"/>
</g>
<g filter="url(#filter4_d)">
<path d="M316.505 187.687C316.453 189.554 315.086 190.777 313.219 190.845V190.845C311.572 190.905 309.385 190.683 308.493 189.298C307.989 188.516 307.712 187.635 307.697 186.754C307.67 185.147 308.892 183.701 310.46 183.344C310.717 183.286 310.975 183.249 311.234 183.227C313.266 183.058 315.554 183.813 316.216 185.741C316.429 186.361 316.523 187.025 316.505 187.687Z" fill="#2D2012"/>
</g>
<g filter="url(#filter5_d)">
<path d="M242.354 186.43C242.302 188.298 240.935 189.521 239.068 189.589V189.589C237.421 189.649 235.234 189.426 234.342 188.041C233.838 187.26 233.561 186.379 233.546 185.497C233.519 183.89 234.742 182.444 236.309 182.088C236.566 182.029 236.824 181.992 237.083 181.971C239.115 181.802 241.403 182.557 242.065 184.485C242.278 185.104 242.372 185.769 242.354 186.43Z" fill="#2D2012"/>
</g>
<g filter="url(#filter6_d)">
<path d="M312.726 185.732C312.612 186.181 312.289 186.498 311.833 186.583V186.583C311.254 186.69 310.494 186.618 310.321 186.055C310.238 185.788 310.233 185.486 310.312 185.185C310.404 184.839 310.639 184.54 310.951 184.365C311.001 184.337 311.05 184.313 311.099 184.292C311.83 183.978 312.795 184.39 312.796 185.185C312.797 185.363 312.772 185.548 312.726 185.732Z" fill="white"/>
</g>
<g filter="url(#filter7_d)">
<path d="M239.833 184.474C239.719 184.924 239.396 185.241 238.94 185.325V185.325C238.361 185.433 237.601 185.361 237.428 184.798C237.345 184.531 237.34 184.229 237.419 183.928C237.511 183.582 237.746 183.282 238.058 183.108C238.108 183.08 238.157 183.056 238.206 183.035C238.936 182.721 239.902 183.132 239.903 183.927C239.904 184.106 239.879 184.291 239.833 184.474Z" fill="white"/>
</g>
<g filter="url(#filter8_d)">
<path d="M287.498 213.191L285.843 209.255L284.896 206.113L284.665 205.108C284.339 203.688 284.175 202.236 284.175 200.779V200.779C284.175 199.729 284.26 198.68 284.43 197.644L284.896 194.807L286.157 189.377L287.498 185.913L288.357 183.491" stroke="#9B846B"/>
</g>
<g filter="url(#filter9_d)">
<path d="M257.824 183.491L260.73 189.96L261.333 191.851C262.09 194.222 262.626 196.659 262.932 199.129V199.129L262.932 202.065L262.471 205.833L261.542 209.744L261.419 210.104C260.965 211.431 260.226 212.642 259.255 213.654V213.654" stroke="#9B846B"/>
</g>
<g filter="url(#filter10_i)">
<path d="M221.034 286.478L220.152 278.06C219.938 276.02 222.647 275.117 223.7 276.877C223.891 277.195 224.169 277.451 224.502 277.614L228.63 279.634L232.613 282.222C234.845 283.671 236.846 285.448 238.549 287.492C239.767 288.954 241.14 290.281 242.642 291.45L245.526 293.695C248.547 296.046 251.784 298.105 255.194 299.844L256.231 300.372L258.036 301.447C261.037 303.234 264.286 304.566 267.678 305.398L269.499 305.7C272.389 306.18 275.314 306.421 278.244 306.421C280.492 306.421 282.734 306.186 284.933 305.719L286.442 305.398L287.494 305.135C290.14 304.475 292.73 303.607 295.24 302.539L295.32 302.505C298.616 301.087 301.749 299.319 304.666 297.229L307.179 295.117L313.465 289.691L321.39 283.528L325.725 279.193C326.941 277.977 328.275 276.883 329.706 275.929L330.564 275.357C333.784 273.21 336.389 270.26 338.12 266.798C338.922 265.605 340.783 266.372 340.511 267.784L334.828 297.229L331.779 332.297C331.566 334.743 330.575 337.056 328.951 338.898C327.899 340.09 326.611 341.051 325.168 341.72L323.495 342.495C322.16 343.114 320.763 343.585 319.326 343.901L309.761 346.004L300.278 346.853L290.889 348.897C290.045 349.08 289.179 349.135 288.319 349.059L287.956 349.027C284.242 348.698 280.785 350.955 279.592 354.488C277.939 359.382 272.18 361.488 267.76 358.815L264.374 356.767C263.177 356.043 261.855 355.548 260.476 355.309L235.602 350.988C226.426 349.395 218.474 343.71 213.998 335.543L209.052 326.52C204.75 318.673 206.722 308.868 213.723 303.294L218.164 299.757C221.651 296.981 222.99 292.297 221.497 288.098L221.232 287.351C221.131 287.069 221.065 286.776 221.034 286.478Z" fill="#F8D5AF"/>
</g>
<path d="M278.099 105.663L279.083 109.735C281.678 120.476 287.476 130.174 295.71 137.543V137.543V137.543C304.16 144.808 313.555 150.894 323.641 155.634L352.209 169.06L338.618 163.442C327.88 159.002 318.406 151.975 311.043 142.985V142.985L305.192 137.543L299.306 132.931C294.213 128.941 290.24 123.702 287.773 117.721V117.721L284.008 113.862L278.099 105.663ZM278.099 105.663V105.663C272.162 117.259 262.215 126.303 250.108 131.113L191.954 154.214L242.943 130.353L250.129 126.228L255.263 123.652L265.187 117.02L269.978 113.862L278.099 105.663Z" stroke="black"/>
<path d="M334.728 81.0078L347.507 96.4509C367.526 120.643 382.323 148.714 390.969 178.901V178.901C396.807 199.283 399.768 220.38 399.768 241.581V258.362V307.439V307.439C399.768 325.274 405.311 342.669 415.629 357.216L418.254 360.916C430.279 377.871 436.739 398.143 436.739 418.929V429.962V448.52C436.739 456.436 435.939 464.331 434.351 472.086L433.505 476.217C429.801 494.298 421.269 511.039 408.814 524.661V524.661C395.371 539.365 377.921 549.817 358.613 554.731L324.032 563.534" stroke="black"/>
<path d="M332.838 51.0703L344.643 65.9C364.367 90.679 378.872 119.194 387.285 149.727V149.727C392.88 170.035 395.715 191.002 395.715 212.066V229.308V252.002C395.715 270.736 399.078 289.317 405.643 306.862V306.862L412.16 319.915C424.85 345.333 431.456 373.354 431.456 401.763V401.763V432.377V468.195C431.456 500.632 418.605 531.747 395.715 554.729V554.729" stroke="black"/>
<path d="M228.935 63.3975L210.951 83.62C196.271 100.128 186.023 120.094 181.169 141.645V141.645L181.003 142.683C177.979 161.608 176.46 180.743 176.46 199.907V199.907L172.423 239.539L170.931 255.529L170.1 259.71C169.631 262.067 168.982 264.384 168.159 266.642V266.642C165.016 275.257 159.418 282.763 152.056 288.232L147.542 291.585C144.402 293.918 141.476 296.527 138.799 299.381L132.61 305.98C127.997 310.899 123.974 316.34 120.624 322.192L117.935 326.889C112.201 336.906 109.184 348.248 109.184 359.79V359.79V382.146" stroke="black"/>
<path d="M284.29 399.757C284.29 403.225 281.857 405.801 279.126 405.801C276.396 405.801 273.962 403.225 273.962 399.757C273.962 396.289 276.396 393.713 279.126 393.713C281.857 393.713 284.29 396.289 284.29 399.757Z" stroke="black" stroke-width="2"/>
<circle cx="279.126" cy="420.009" r="5.16365" stroke="black" stroke-width="2"/>
<g filter="url(#filter11_f)">
<ellipse cx="320.51" cy="229.817" rx="17.6104" ry="16.7299" fill="#FFC3B6" fill-opacity="0.5"/>
</g>
<g filter="url(#filter12_f)">
<circle cx="225.414" cy="230.697" r="17.6104" fill="#FFC3B6" fill-opacity="0.5"/>
</g>
<path d="M314.523 45.8822L321.852 48.2376C328.634 50.4175 334.959 53.8213 340.515 58.2805C343.993 61.0723 347.139 64.2537 349.892 67.7624L350.281 68.2577C353.351 72.1702 355.952 76.4283 358.033 80.9452L362.259 90.1183C366.784 98.9957 370.103 108.438 372.126 118.195L373.723 125.898L381.133 157.919L387.599 200.235L392.318 240.773L395.369 280.612L395.369 284.868C395.369 298.79 397.025 312.663 400.304 326.194C402.796 336.888 412.723 353.624 414.284 358.256C415.846 362.888 422.116 388.216 425.056 400.301L429.219 419.06C433.728 439.381 432.282 460.571 425.056 480.091L420.792 489.294C416.488 498.584 410.556 507.029 403.277 514.229C392.992 524.4 380.303 531.807 366.388 535.759L281.416 559.897C303.336 544.402 317.159 519.901 319.086 493.127L322.22 449.577C322.925 439.769 324.425 430.035 326.704 420.47L326.889 419.691C330.358 405.128 332.111 390.21 332.111 375.239L332.111 353.785L332.111 326.194L332.747 319.993C333.666 311.04 330.458 302.156 324.032 295.855C320.529 291.852 320.616 285.849 324.233 281.948L334.201 271.201C339.59 264.742 343.602 257.25 345.99 249.185L347.541 243.944C349.946 235.82 351.168 227.392 351.168 218.92L351.168 214.704C351.168 202.351 349.216 190.076 345.384 178.333L344.255 174.875L343.664 173.635C342.803 171.829 341.813 170.087 340.703 168.422L338.03 164.413C334.337 158.872 328.826 154.794 322.449 152.881C320.653 152.342 318.808 151.981 316.941 151.803L309.452 151.09C307.524 150.907 305.62 150.523 303.771 149.945L296.73 147.745C290.475 145.79 285.959 140.334 285.208 133.824L282.453 109.955C282.089 106.799 278.334 105.346 275.94 107.436L247.483 136.361C241.668 141.761 234.906 146.04 227.536 148.983L226.47 149.409C224.127 150.344 221.857 151.452 219.678 152.723L213.624 156.254C209.162 158.857 205.537 162.681 203.177 167.276C201.725 170.104 200.782 173.165 200.391 176.32L198.468 191.841L198.468 210.852L200.29 232.537C200.749 237.998 202.007 243.362 204.024 248.457C207.391 256.963 212.79 264.515 219.751 270.452L230.516 279.634L235.261 285.006C237.457 287.493 238.912 290.546 239.46 293.819C240.167 298.044 239.321 302.382 237.078 306.032L233.219 312.311C231.426 315.23 230.042 318.38 229.106 321.675L227.395 327.697C226.137 332.128 225.295 336.666 224.88 341.254C223.62 355.208 218.422 368.517 209.892 379.632L202.239 389.603C192.442 404.411 187.975 422.111 189.57 439.794L192.184 468.78L143.376 405.492L119.486 378.317C108.292 361.618 108.101 339.861 119 322.967L123.562 315.897C125.273 313.245 127.181 310.725 129.269 308.358L137.588 298.926C139.403 296.868 141.437 295.016 143.655 293.401C148.92 289.568 152.747 283.942 157.808 279.843C162.22 276.269 167.379 274.201 170.509 270.652C173.743 266.986 175.068 246.698 175.484 230.187C175.808 217.334 176.75 204.478 179.123 191.841L182.263 153.598L185.889 133.345L190.831 114.029C193.611 103.165 198.19 92.8422 204.38 83.4904L209.878 75.0726C212.126 71.63 214.62 68.3542 217.34 65.2705L219.279 63.072C223.002 58.8513 227.27 55.1441 231.969 52.0477C238.16 47.9688 245.018 45.0053 252.231 43.2912L252.906 43.1307C258.015 41.9165 263.249 41.3031 268.501 41.3031L272.514 41.3031L284.823 41.3031C294.167 41.3031 303.463 42.6382 312.429 45.2678L314.523 45.8822Z" fill="black"/>
<path d="M275.94 107.436V107.436C278.334 105.346 282.089 106.799 282.453 109.955L285.208 133.824C285.959 140.334 290.475 145.79 296.73 147.745L303.771 149.945C305.62 150.523 307.524 150.907 309.452 151.09L316.941 151.803C318.808 151.981 320.653 152.342 322.449 152.881V152.881C328.826 154.794 334.337 158.872 338.03 164.413L340.703 168.422C341.813 170.087 342.802 171.829 343.664 173.635L344.255 174.875L345.384 178.333C349.216 190.076 351.168 202.351 351.168 214.704L351.168 218.92C351.168 227.392 349.946 235.82 347.541 243.944L345.99 249.185C343.602 257.25 339.59 264.742 334.201 271.201V271.201L324.233 281.948C320.616 285.849 320.529 291.852 324.032 295.855V295.855V295.855C330.458 302.156 333.666 311.04 332.747 319.993L332.111 326.194L332.111 353.785L332.111 375.239C332.111 390.21 330.359 405.128 326.889 419.691L326.704 420.47C324.425 430.035 322.925 439.769 322.22 449.577L319.086 493.127C317.159 519.901 303.336 544.402 281.416 559.897V559.897L366.388 535.759C380.303 531.807 392.992 524.4 403.277 514.229V514.229C410.556 507.029 416.488 498.584 420.792 489.294L425.056 480.091V480.091C432.282 460.571 433.728 439.381 429.219 419.06L425.056 400.301C422.116 388.216 415.846 362.888 414.284 358.256C412.723 353.624 402.796 336.888 400.304 326.194V326.194C397.025 312.663 395.369 298.79 395.369 284.868L395.369 280.612L392.318 240.773L387.599 200.235L381.133 157.919L373.723 125.898L372.126 118.195C370.103 108.438 366.784 98.9957 362.259 90.1183V90.1183L358.033 80.9452C355.952 76.4283 353.351 72.1702 350.281 68.2577L349.892 67.7624C347.139 64.2537 343.993 61.0723 340.515 58.2805V58.2805C334.959 53.8213 328.634 50.4175 321.852 48.2376L314.523 45.8822L312.429 45.2678C303.463 42.6382 294.167 41.3031 284.823 41.3031V41.3031L272.514 41.3031M275.94 107.436L247.483 136.361V136.361C241.668 141.761 234.906 146.04 227.536 148.983L226.47 149.409C224.127 150.344 221.857 151.452 219.678 152.723L213.624 156.254C209.162 158.857 205.537 162.681 203.177 167.276V167.276C201.725 170.104 200.782 173.165 200.391 176.32L198.468 191.841L198.468 210.852L200.29 232.537C200.749 237.998 202.007 243.362 204.024 248.457V248.457C207.391 256.963 212.79 264.515 219.751 270.452L230.516 279.634L235.261 285.006C237.457 287.493 238.912 290.546 239.46 293.819V293.819C240.167 298.044 239.321 302.382 237.078 306.032L233.219 312.311C231.426 315.23 230.042 318.38 229.106 321.675L227.395 327.697C226.137 332.128 225.295 336.666 224.88 341.254V341.254C223.62 355.208 218.422 368.517 209.892 379.632L202.239 389.603V389.603C192.442 404.411 187.975 422.111 189.57 439.794L192.184 468.78L143.376 405.492L119.486 378.317V378.317C108.292 361.618 108.101 339.861 119 322.967L123.562 315.897C125.273 313.245 127.181 310.725 129.269 308.358L137.588 298.926C139.403 296.868 141.437 295.016 143.655 293.401V293.401C148.92 289.568 152.747 283.942 157.808 279.843C162.22 276.269 167.379 274.201 170.509 270.652C173.743 266.986 175.068 246.698 175.484 230.187C175.808 217.334 176.75 204.478 179.123 191.841V191.841L182.263 153.598L185.889 133.345L190.831 114.029C193.611 103.165 198.19 92.8422 204.38 83.4904V83.4904L209.878 75.0726C212.126 71.63 214.62 68.3542 217.34 65.2705L219.279 63.072C223.002 58.8513 227.27 55.1441 231.969 52.0477V52.0477C238.16 47.9688 245.018 45.0053 252.231 43.2912L252.906 43.1307C258.015 41.9165 263.249 41.3031 268.501 41.3031L272.514 41.3031M275.94 107.436L272.514 41.3031" stroke="black"/>
<path d="M259.605 191.03L263.845 186.569C264.597 185.778 265.464 185.103 266.417 184.568V184.568C267.685 183.856 269.084 183.405 270.529 183.241L273.868 182.861H274.872C276.327 182.861 277.769 183.129 279.127 183.651V183.651C280.699 184.255 282.125 185.186 283.309 186.384L285.063 188.158L286.478 189.774" stroke="black" stroke-width="2"/>
<path d="M361.29 169.666L337.535 184.328L340.329 188.517L363.735 174.753L361.29 169.666Z" fill="black" stroke="black"/>
<path d="M210.804 185.266L182.891 178.513L180.665 183.383L207.532 190.507L210.804 185.266Z" fill="black" stroke="black"/>
<path d="M261.657 198.571C261.657 212.502 249.119 223.964 233.433 223.964C217.747 223.964 205.209 212.502 205.209 198.571C205.209 184.641 217.747 173.179 233.433 173.179C249.119 173.179 261.657 184.641 261.657 198.571Z" fill="url(#paint1_linear)" fill-opacity="0.2" stroke="black" stroke-width="2"/>
<path d="M343.282 198.571C343.282 212.472 330.327 223.964 314.051 223.964C297.775 223.964 284.819 212.472 284.819 198.571C284.819 184.671 297.775 173.179 314.051 173.179C330.327 173.179 343.282 184.671 343.282 198.571Z" fill="url(#paint2_linear)" fill-opacity="0.15" stroke="black" stroke-width="2"/>
<path d="M263.936 398.776C264.471 391.044 262.843 383.315 259.236 376.455M255.501 370.419L255.51 370.444L255.523 370.467L258.794 376.688C262.358 383.466 263.966 391.102 263.437 398.741C263.247 401.503 262.778 404.238 262.04 406.905L260.898 411.031C259.265 416.931 256.092 422.29 251.705 426.56L249.582 428.451C248.034 429.83 246.152 430.781 244.123 431.208C240.391 431.995 236.509 430.945 233.683 428.385L233.345 428.079C231.227 426.162 229.813 423.591 229.326 420.776L229.257 420.377C228.924 418.447 229 416.468 229.481 414.569L230.252 411.53C231.004 408.559 231.293 405.49 231.107 402.43L229.993 384.131L229.992 384.116L229.991 384.102L229.617 380.981C228.942 375.341 227.472 369.824 225.251 364.595L224.281 362.309C222.903 359.064 221.956 355.652 221.464 352.16L220.847 347.779C220.114 342.575 220.97 337.272 223.304 332.563L228.84 321.392C229.118 320.831 229.282 320.232 229.333 319.627L235.813 329.854L235.813 329.854L235.818 329.862L244.341 342.753L249.711 355.877L249.713 355.881L255.501 370.419ZM252.694 426.99C257.057 422.644 260.218 417.237 261.862 411.298L263.004 407.172C263.76 404.44 264.24 401.639 264.435 398.81C264.976 390.986 263.329 383.165 259.679 376.223L256.42 370.025L250.64 355.507L250.638 355.503L245.53 343.018L264.055 343.009C264.055 343.009 264.055 343.009 264.055 343.009C267.931 343.015 271.483 345.175 273.269 348.615L275.777 353.443L275.787 360.434L276.787 360.433L276.777 353.514L279.623 350.398C282.65 347.083 286.934 345.198 291.423 345.204C292.641 345.206 293.856 345.076 295.046 344.818L299.004 343.958C310.01 341.567 319.18 334.001 323.619 323.652L329.551 314.276L328.829 313.819L331.13 309.479C331.675 308.451 331.899 307.283 331.772 306.127L331.203 300.928C331.058 299.611 332.384 298.624 333.605 299.14C334.108 299.352 334.482 299.79 334.614 300.32L336.893 309.489C337.736 312.884 337.703 316.438 336.795 319.816L332.411 336.138L332.41 336.141L325.216 363.522L318.771 383.369L311.365 374.027C310.542 372.989 309.554 372.094 308.44 371.378C304.972 369.149 300.604 368.848 296.864 370.582L293.033 372.358L293.453 373.265L297.284 371.489C300.714 369.9 304.719 370.175 307.899 372.219C308.921 372.876 309.827 373.696 310.582 374.648L318.408 384.521L316.57 391.058C313.418 402.271 308.229 412.807 301.263 422.142L294.78 430.776L288.942 437.819L288.942 393.452L287.942 393.452L287.942 438.975L271.212 453.334L271.24 393.452L270.24 393.451L270.213 452.797L252.694 426.99Z" fill="white" stroke="black"/>
<circle cx="280.006" cy="408.562" r="3.52209" fill="black"/>
<circle cx="280.006" cy="422.651" r="3.52209" fill="black"/>
<defs>
<filter id="filter0_d" x="252.962" y="217.596" width="42.68" height="21.9896" filterUnits="userSpaceOnUse" color-interpolation-filters="sRGB">
<feFlood flood-opacity="0" result="BackgroundImageFix"/>
<feColorMatrix in="SourceAlpha" type="matrix" values="0 0 0 0 0 0 0 0 0 0 0 0 0 0 0 0 0 0 127 0"/>
<feOffset/>
<feGaussianBlur stdDeviation="1"/>
<feColorMatrix type="matrix" values="0 0 0 0 0 0 0 0 0 0 0 0 0 0 0 0 0 0 0.3 0"/>
<feBlend mode="normal" in2="BackgroundImageFix" result="effect1_dropShadow"/>
<feBlend mode="normal" in="SourceGraphic" in2="effect1_dropShadow" result="shape"/>
</filter>
<filter id="filter1_d" x="218.61" y="177.428" width="38.0262" height="16.4028" filterUnits="userSpaceOnUse" color-interpolation-filters="sRGB">
<feFlood flood-opacity="0" result="BackgroundImageFix"/>
<feColorMatrix in="SourceAlpha" type="matrix" values="0 0 0 0 0 0 0 0 0 0 0 0 0 0 0 0 0 0 127 0"/>
<feOffset/>
<feGaussianBlur stdDeviation="1"/>
<feColorMatrix type="matrix" values="0 0 0 0 0 0 0 0 0 0 0 0 0 0 0 0 0 0 0.5 0"/>
<feBlend mode="normal" in2="BackgroundImageFix" result="effect1_dropShadow"/>
<feBlend mode="normal" in="SourceGraphic" in2="effect1_dropShadow" result="shape"/>
</filter>
<filter id="filter2_d" x="293.411" y="178.828" width="35.5366" height="16.5392" filterUnits="userSpaceOnUse" color-interpolation-filters="sRGB">
<feFlood flood-opacity="0" result="BackgroundImageFix"/>
<feColorMatrix in="SourceAlpha" type="matrix" values="0 0 0 0 0 0 0 0 0 0 0 0 0 0 0 0 0 0 127 0"/>
<feOffset/>
<feGaussianBlur stdDeviation="1"/>
<feColorMatrix type="matrix" values="0 0 0 0 0 0 0 0 0 0 0 0 0 0 0 0 0 0 0.5 0"/>
<feBlend mode="normal" in2="BackgroundImageFix" result="effect1_dropShadow"/>
<feBlend mode="normal" in="SourceGraphic" in2="effect1_dropShadow" result="shape"/>
</filter>
<filter id="filter3_d" x="304.48" y="181.374" width="14.9666" height="13.716" filterUnits="userSpaceOnUse" color-interpolation-filters="sRGB">
<feFlood flood-opacity="0" result="BackgroundImageFix"/>
<feColorMatrix in="SourceAlpha" type="matrix" values="0 0 0 0 0 0 0 0 0 0 0 0 0 0 0 0 0 0 127 0"/>
<feOffset dy="1"/>
<feGaussianBlur stdDeviation="0.5"/>
<feColorMatrix type="matrix" values="0 0 0 0 0 0 0 0 0 0 0 0 0 0 0 0 0 0 0.1 0"/>
<feBlend mode="normal" in2="BackgroundImageFix" result="effect1_dropShadow"/>
<feBlend mode="normal" in="SourceGraphic" in2="effect1_dropShadow" result="shape"/>
</filter>
<filter id="filter4_d" x="303.696" y="179.204" width="16.8105" height="15.6499" filterUnits="userSpaceOnUse" color-interpolation-filters="sRGB">
<feFlood flood-opacity="0" result="BackgroundImageFix"/>
<feColorMatrix in="SourceAlpha" type="matrix" values="0 0 0 0 0 0 0 0 0 0 0 0 0 0 0 0 0 0 127 0"/>
<feOffset/>
<feGaussianBlur stdDeviation="2"/>
<feColorMatrix type="matrix" values="0 0 0 0 0.870588 0 0 0 0 0.72549 0 0 0 0 0.568627 0 0 0 1 0"/>
<feBlend mode="normal" in2="BackgroundImageFix" result="effect1_dropShadow"/>
<feBlend mode="normal" in="SourceGraphic" in2="effect1_dropShadow" result="shape"/>
</filter>
<filter id="filter5_d" x="229.545" y="177.948" width="16.8105" height="15.6499" filterUnits="userSpaceOnUse" color-interpolation-filters="sRGB">
<feFlood flood-opacity="0" result="BackgroundImageFix"/>
<feColorMatrix in="SourceAlpha" type="matrix" values="0 0 0 0 0 0 0 0 0 0 0 0 0 0 0 0 0 0 127 0"/>
<feOffset/>
<feGaussianBlur stdDeviation="2"/>
<feColorMatrix type="matrix" values="0 0 0 0 0.972549 0 0 0 0 0.835294 0 0 0 0 0.686275 0 0 0 1 0"/>
<feBlend mode="normal" in2="BackgroundImageFix" result="effect1_dropShadow"/>
<feBlend mode="normal" in="SourceGraphic" in2="effect1_dropShadow" result="shape"/>
</filter>
<filter id="filter6_d" x="307.256" y="181.187" width="8.5406" height="8.43852" filterUnits="userSpaceOnUse" color-interpolation-filters="sRGB">
<feFlood flood-opacity="0" result="BackgroundImageFix"/>
<feColorMatrix in="SourceAlpha" type="matrix" values="0 0 0 0 0 0 0 0 0 0 0 0 0 0 0 0 0 0 127 0"/>
<feOffset/>
<feGaussianBlur stdDeviation="1.5"/>
<feColorMatrix type="matrix" values="0 0 0 0 1 0 0 0 0 1 0 0 0 0 1 0 0 0 1 0"/>
<feBlend mode="normal" in2="BackgroundImageFix" result="effect1_dropShadow"/>
<feBlend mode="normal" in="SourceGraphic" in2="effect1_dropShadow" result="shape"/>
</filter>
<filter id="filter7_d" x="234.363" y="179.929" width="8.5406" height="8.43852" filterUnits="userSpaceOnUse" color-interpolation-filters="sRGB">
<feFlood flood-opacity="0" result="BackgroundImageFix"/>
<feColorMatrix in="SourceAlpha" type="matrix" values="0 0 0 0 0 0 0 0 0 0 0 0 0 0 0 0 0 0 127 0"/>
<feOffset/>
<feGaussianBlur stdDeviation="1.5"/>
<feColorMatrix type="matrix" values="0 0 0 0 1 0 0 0 0 1 0 0 0 0 1 0 0 0 1 0"/>
<feBlend mode="normal" in2="BackgroundImageFix" result="effect1_dropShadow"/>
<feBlend mode="normal" in="SourceGraphic" in2="effect1_dropShadow" result="shape"/>
</filter>
<filter id="filter8_d" x="279.675" y="183.324" width="13.1531" height="38.0606" filterUnits="userSpaceOnUse" color-interpolation-filters="sRGB">
<feFlood flood-opacity="0" result="BackgroundImageFix"/>
<feColorMatrix in="SourceAlpha" type="matrix" values="0 0 0 0 0 0 0 0 0 0 0 0 0 0 0 0 0 0 127 0"/>
<feOffset dy="4"/>
<feGaussianBlur stdDeviation="2"/>
<feColorMatrix type="matrix" values="0 0 0 0 0 0 0 0 0 0 0 0 0 0 0 0 0 0 0.25 0"/>
<feBlend mode="normal" in2="BackgroundImageFix" result="effect1_dropShadow"/>
<feBlend mode="normal" in="SourceGraphic" in2="effect1_dropShadow" result="shape"/>
</filter>
<filter id="filter9_d" x="253.368" y="183.286" width="14.0645" height="38.7141" filterUnits="userSpaceOnUse" color-interpolation-filters="sRGB">
<feFlood flood-opacity="0" result="BackgroundImageFix"/>
<feColorMatrix in="SourceAlpha" type="matrix" values="0 0 0 0 0 0 0 0 0 0 0 0 0 0 0 0 0 0 127 0"/>
<feOffset dy="4"/>
<feGaussianBlur stdDeviation="2"/>
<feColorMatrix type="matrix" values="0 0 0 0 0 0 0 0 0 0 0 0 0 0 0 0 0 0 0.25 0"/>
<feBlend mode="normal" in2="BackgroundImageFix" result="effect1_dropShadow"/>
<feBlend mode="normal" in="SourceGraphic" in2="effect1_dropShadow" result="shape"/>
</filter>
<filter id="filter10_i" x="206.787" y="266.209" width="133.751" height="97.7754" filterUnits="userSpaceOnUse" color-interpolation-filters="sRGB">
<feFlood flood-opacity="0" result="BackgroundImageFix"/>
<feBlend mode="normal" in="SourceGraphic" in2="BackgroundImageFix" result="shape"/>
<feColorMatrix in="SourceAlpha" type="matrix" values="0 0 0 0 0 0 0 0 0 0 0 0 0 0 0 0 0 0 127 0" result="hardAlpha"/>
<feOffset dy="4"/>
<feGaussianBlur stdDeviation="2.5"/>
<feComposite in2="hardAlpha" operator="arithmetic" k2="-1" k3="1"/>
<feColorMatrix type="matrix" values="0 0 0 0 0 0 0 0 0 0 0 0 0 0 0 0 0 0 1 0"/>
<feBlend mode="normal" in2="shape" result="effect1_innerShadow"/>
</filter>
<filter id="filter11_f" x="298.899" y="209.087" width="43.2209" height="41.4598" filterUnits="userSpaceOnUse" color-interpolation-filters="sRGB">
<feFlood flood-opacity="0" result="BackgroundImageFix"/>
<feBlend mode="normal" in="SourceGraphic" in2="BackgroundImageFix" result="shape"/>
<feGaussianBlur stdDeviation="2" result="effect1_foregroundBlur"/>
</filter>
<filter id="filter12_f" x="203.803" y="209.087" width="43.2209" height="43.2209" filterUnits="userSpaceOnUse" color-interpolation-filters="sRGB">
<feFlood flood-opacity="0" result="BackgroundImageFix"/>
<feBlend mode="normal" in="SourceGraphic" in2="BackgroundImageFix" result="shape"/>
<feGaussianBlur stdDeviation="2" result="effect1_foregroundBlur"/>
</filter>
<linearGradient id="paint0_linear" x1="280.787" y1="243.816" x2="244.969" y2="287.803" gradientUnits="userSpaceOnUse">
<stop stop-color="#FF0000"/>
<stop offset="1" stop-color="white" stop-opacity="0"/>
</linearGradient>
<linearGradient id="paint1_linear" x1="239.451" y1="206.74" x2="222.583" y2="243.451" gradientUnits="userSpaceOnUse">
<stop stop-color="#14D6F0" stop-opacity="0.37"/>
<stop offset="1" stop-color="white" stop-opacity="0"/>
</linearGradient>
<linearGradient id="paint2_linear" x1="325.443" y1="180.348" x2="302.09" y2="214.512" gradientUnits="userSpaceOnUse">
<stop stop-color="#06C3FF"/>
<stop offset="1" stop-color="white"/>
</linearGradient>
</defs>
</svg>
